<?xml version="1.0" standalone="no"?>
<!DOCTYPE svg PUBLIC "-//W3C//DTD SVG 1.1//EN" "http://www.w3.org/Graphics/SVG/1.1/DTD/svg11.dtd" >
<svg>
<metadata>
Created by FontForge 20090622 at Thu May  4 16:35:00 2017
 By deploy user
(c) OurType, 2005. All rights reserved. SansaPro is a design by Fred Smeijers
</metadata>
<defs>
<font id="SansaPro-Bold" horiz-adv-x="625" >
  <font-face 
    font-family="Sansa Pro Bold"
    font-weight="700"
    font-stretch="normal"
    units-per-em="1000"
    panose-1="2 0 6 3 8 0 0 2 0 4"
    ascent="800"
    descent="-200"
    x-height="547"
    cap-height="750"
    bbox="-219 -219 1437 1031"
    underline-thickness="21"
    underline-position="-113"
    unicode-range="U+0020-U+FB02"
  />
<missing-glyph horiz-adv-x="500" 
d="M0 0v700h500v-700h-500zM250 395l170 255h-340zM280 350l170 -255v510zM80 50h340l-170 255zM50 605v-510l170 255z" />
    <glyph glyph-name="fi" unicode="fi" horiz-adv-x="695" 
d="M266 555v-8h351v-547h-172v406h-179v-406h-172v406h-86v141h86v16q0 90 51.5 138.5t143.5 48.5h98v-125h-43q-78 0 -78 -70zM445 609v141h172v-141h-172z" />
    <glyph glyph-name="fl" unicode="fl" horiz-adv-x="695" 
d="M344 625q-78 0 -78 -70v-8h101v-141h-101v-406h-172v406h-86v141h86v16q0 90 51.5 138.5t143.5 48.5h328v-750h-172v625h-101z" />
    <glyph glyph-name="f_f" unicode="ff" horiz-adv-x="719" 
d="M445 0v406h-179v-406h-172v406h-86v141h86v16q0 90 51.5 138.5t143.5 48.5h98v-125h-43q-78 0 -78 -70v-8h179v16q0 90 52 138.5t144 48.5h109v-125h-55q-78 0 -78 -70v-8h117v-141h-117v-406h-172z" />
    <glyph glyph-name="f_f_i" unicode="ffi" horiz-adv-x="1047" 
d="M617 555v-8h352v-547h-172v406h-180v-406h-172v406h-179v-406h-172v406h-86v141h86v16q0 90 51.5 138.5t143.5 48.5h98v-125h-43q-78 0 -78 -70v-8h179v16q0 90 52 138.5t144 48.5h97v-125h-43q-78 0 -78 -70zM797 609v141h172v-141h-172z" />
    <glyph glyph-name="f_f_l" unicode="ffl" horiz-adv-x="1047" 
d="M641 750h328v-750h-172v625h-102q-78 0 -78 -70v-8h102v-141h-102v-406h-172v406h-179v-406h-172v406h-86v141h86v16q0 90 51.5 138.5t143.5 48.5h98v-125h-43q-78 0 -78 -70v-8h179v16q0 90 52 138.5t144 48.5z" />
    <glyph glyph-name="f_t" unicode="ft" horiz-adv-x="766" 
d="M766 0h-102q-108 0 -167.5 53.5t-59.5 157.5v195h-171v-406h-172v406h-86v141h86v16q0 90 51.5 138.5t143.5 48.5h98v-125h-43q-78 0 -78 -70v-8h171v141h172v-141h141v-141h-141v-156q0 -60 22 -84.5t80 -24.5h55v-141z" />
    <glyph glyph-name="f_j" unicode="fj" horiz-adv-x="695" 
d="M328 -188v141h24q52 0 72.5 20.5t20.5 73.5v359h-179v-406h-172v406h-86v141h86v16q0 90 51.5 138.5t143.5 48.5h98v-125h-43q-78 0 -78 -70v-8h351v-516q0 -105 -61.5 -162t-157.5 -57h-70zM445 609v141h172v-141h-172z" />
    <glyph glyph-name="f_b" unicode="fb" horiz-adv-x="1039" 
d="M289 750h328v-277l39 27q79 55 153 55q84 0 129.5 -47.5t45.5 -132.5v-109q0 -121 -81.5 -193.5t-207.5 -72.5h-250v625h-101q-78 0 -78 -70v-8h101v-141h-101v-406h-172v406h-86v141h86v16q0 90 51.5 138.5t143.5 48.5zM617 141h64q131 0 131 125v78q0 62 -62 62
q-38 0 -102 -39l-31 -19v-207z" />
    <glyph glyph-name="f_h" unicode="fh" horiz-adv-x="1055" 
d="M289 750h328v-286l24 16q54 39 92.5 57t86.5 18q78 0 117.5 -45.5t39.5 -126.5v-383h-171v336q0 35 -11 52.5t-41 17.5q-32 0 -106 -47l-31 -19v-340h-172v625h-101q-78 0 -78 -70v-8h101v-141h-101v-406h-172v406h-86v141h86v16q0 90 51.5 138.5t143.5 48.5z" />
    <glyph glyph-name="f_k" unicode="fk" horiz-adv-x="1008" 
d="M445 0v625h-101q-78 0 -78 -70v-8h101v-141h-101v-406h-172v406h-86v141h86v16q0 90 51.5 138.5t143.5 48.5h328v-391h39l156 188h188v-8l-203 -238l203 -293v-8h-194l-150 219h-39v-219h-172z" />
    <glyph glyph-name=".notdef" horiz-adv-x="500" 
d="M0 0v700h500v-700h-500zM250 395l170 255h-340zM280 350l170 -255v510zM80 50h340l-170 255zM50 605v-510l170 255z" />
    <glyph glyph-name=".null" horiz-adv-x="0" 
 />
    <glyph glyph-name="nonmarkingreturn" horiz-adv-x="333" 
 />
    <glyph glyph-name="space" unicode=" " horiz-adv-x="266" 
 />
    <glyph glyph-name="exclam" unicode="!" horiz-adv-x="328" 
d="M90 250l-12 500h172l-12 -500h-148zM78 0v172h172v-172h-172z" />
    <glyph glyph-name="quotedbl" unicode="&#x22;" horiz-adv-x="523" 
d="M305 547l-16 203h172l-16 -203h-140zM78 547l-15 203h171l-15 -203h-141z" />
    <glyph glyph-name="numbersign" unicode="#" horiz-adv-x="719" 
d="M156 0v141h-125v140h125v188h-125v140h125v141h141v-141h125v141h140v-141h125v-140h-125v-188h125v-140h-125v-141h-140v141h-125v-141h-141zM297 281h125v188h-125v-188z" />
    <glyph glyph-name="dollar" unicode="$" 
d="M285 756v111h125v-111q93 -8 145 -26v-144h-8q-29 8 -86 15.5t-90 7.5h-35q-102 0 -102 -66q0 -52 71 -70l117 -32q86 -23 129 -76t43 -142q0 -108 -63.5 -163.5t-175.5 -65.5v-119h-125v118q-99 9 -175 34v145h8q103 -31 203 -31h39q109 0 109 82q0 55 -86 78l-117 31
q-156 40 -156 211q0 98 63 150.5t167 62.5z" />
    <glyph glyph-name="percent" unicode="%" horiz-adv-x="1031" 
d="M297 0v16l355 734h82v-16l-355 -734h-82zM252 320q-98 0 -144 50t-46 167q0 120 46 169t144 49q97 0 142.5 -49.5t45.5 -168.5q0 -116 -46 -166.5t-142 -50.5zM252 417q37 0 49.5 24t12.5 96q0 73 -12.5 96.5t-49.5 23.5q-39 0 -52 -23.5t-13 -96.5q0 -72 13 -96t52 -24z
M782 -4q-98 0 -144 50t-46 167q0 120 46 169t144 49q97 0 143 -49.5t46 -168.5q0 -116 -46.5 -166.5t-142.5 -50.5zM782 93q37 0 50 24t13 96q0 73 -13 96.5t-50 23.5q-39 0 -51.5 -23.5t-12.5 -96.5q0 -72 13 -96t51 -24z" />
    <glyph glyph-name="ampersand" unicode="&#x26;" horiz-adv-x="703" 
d="M344 -8q-281 0 -281 227q0 59 34.5 108.5t90.5 67.5q-98 48 -98 160q0 69 39 116t99 67t135 20h20q38 0 95 -8.5t85 -19.5v-144h-8q-82 23 -172 23h-20q-101 0 -101 -78q0 -38 21.5 -58t60.5 -20h312v-140h-62v-278q-43 -16 -115 -29.5t-135 -13.5zM344 141q41 0 78 7
v165h-78q-110 0 -110 -90q0 -82 110 -82z" />
    <glyph glyph-name="quotesingle" unicode="'" horiz-adv-x="297" 
d="M78 547l-15 203h171l-15 -203h-141z" />
    <glyph glyph-name="parenleft" unicode="(" horiz-adv-x="438" 
d="M227 -125q-85 61 -132.5 172t-47.5 250v31q0 139 47.5 250t132.5 172h148v-16q-156 -136 -156 -406v-31q0 -270 156 -406v-16h-148z" />
    <glyph glyph-name="parenright" unicode=")" horiz-adv-x="438" 
d="M63 -125v16q156 136 156 406v31q0 270 -156 406v16h148q85 -62 132.5 -173t47.5 -249v-31q0 -138 -47.5 -249t-132.5 -173h-148z" />
    <glyph glyph-name="asterisk" unicode="*" horiz-adv-x="500" 
d="M195 449l-97 -56l-55 93l98 57l-98 57l55 93l97 -56v113h110v-113l97 56l55 -93l-99 -57l99 -57l-55 -93l-97 56v-113h-110v113z" />
    <glyph glyph-name="plus" unicode="+" 
d="M242 148v149h-148v141h148v148h141v-148h148v-141h-148v-149h-141z" />
    <glyph glyph-name="comma" unicode="," horiz-adv-x="328" 
d="M12 -125l78 297h172v-63l-129 -234h-121z" />
    <glyph glyph-name="hyphen" unicode="-" horiz-adv-x="406" 
d="M31 297v141h344v-141h-344z" />
    <glyph glyph-name="hyphen" unicode="&#xad;" horiz-adv-x="406" 
d="M31 297v141h344v-141h-344z" />
    <glyph glyph-name="period" unicode="." horiz-adv-x="328" 
d="M78 0v172h172v-172h-172z" />
    <glyph glyph-name="slash" unicode="/" horiz-adv-x="582" 
d="M31 -125v16l364 859h156v-16l-363 -859h-157z" />
    <glyph glyph-name="zero" unicode="0" 
d="M313 -8q-145 0 -213.5 88.5t-68.5 294.5q0 210 68 296.5t214 86.5q145 0 213 -86.5t68 -296.5q0 -206 -68.5 -294.5t-212.5 -88.5zM313 141q64 0 86.5 47.5t22.5 186.5q0 140 -22.5 187t-86.5 47q-65 0 -87.5 -47t-22.5 -187q0 -139 22.5 -186.5t87.5 -47.5z" />
    <glyph glyph-name="one" unicode="1" 
d="M266 0v562l-180 -70h-8v156l250 102h109v-750h-171z" />
    <glyph glyph-name="two" unicode="2" 
d="M55 0v117q0 77 30.5 128.5t109.5 106.5l102 70q78 52 78 109q0 40 -24.5 55.5t-84.5 15.5h-188v148h234q111 0 173 -55.5t62 -155.5q0 -42 -10 -74t-36.5 -60.5t-48.5 -46t-69 -49.5l-86 -59q-63 -42 -63 -94v-8h328v-148h-507z" />
    <glyph glyph-name="three" unicode="3" 
d="M78 0v148h219q109 0 109 86q0 79 -109 79h-141v125h162q73 43 73 97q0 38 -24 52.5t-70 14.5h-211v148h227q120 0 185 -39.5t65 -140.5q0 -42 -24.5 -84.5t-70.5 -74.5q110 -40 110 -177q0 -109 -74 -171.5t-191 -62.5h-235z" />
    <glyph glyph-name="four" unicode="4" 
d="M355 0v121h-308v113q55 110 91.5 251t49.5 265h187q-35 -263 -156 -480h136v136h172v-136h67v-149h-67v-121h-172z" />
    <glyph glyph-name="five" unicode="5" 
d="M63 0v148h218q61 0 93 21t32 73q0 53 -35 69.5t-105 16.5h-188v422h469v-148h-305v-125h67q128 0 198.5 -58t70.5 -177q0 -123 -80 -182.5t-217 -59.5h-218z" />
    <glyph glyph-name="six" unicode="6" 
d="M305 -8q-118 0 -188 67t-70 183v211q0 142 92.5 219.5t243.5 77.5h140v-148h-164q-60 0 -100 -34t-40 -91v-10q53 25 125 25q115 0 174.5 -65.5t59.5 -184.5q0 -118 -75 -184t-198 -66zM313 141q93 0 93 101q0 110 -93 110q-53 0 -94 -15v-95q0 -48 24 -74.5t70 -26.5z
" />
    <glyph glyph-name="seven" unicode="7" 
d="M171 0v94q0 150 60 284.5t151 223.5h-320v148h500v-109q-106 -120 -162.5 -246.5t-56.5 -300.5v-94h-172z" />
    <glyph glyph-name="eight" unicode="8" 
d="M301 -8q-262 0 -262 219q0 93 86 156l28 21q-98 58 -98 171q0 98 71.5 148.5t174.5 50.5h23q119 0 182.5 -46.5t63.5 -152.5q0 -39 -21 -79.5t-49 -65.5l-21 -19q107 -59 107 -184q0 -101 -76.5 -160t-185.5 -59h-23zM354 446l21 23q31 31 31 78q0 30 -23.5 46t-58.5 16
h-23q-35 0 -58.5 -16t-23.5 -46q0 -18 4.5 -30.5t19.5 -22t22 -12.5t32 -13zM301 141h23q42 0 66 20t24 58q0 22 -6.5 38t-21.5 27.5t-27 17t-35 14.5l-52 21l-30 -32q-31 -35 -31 -86q0 -78 90 -78z" />
    <glyph glyph-name="nine" unicode="9" 
d="M102 0v148h164q60 0 100 34t40 91v2q-53 -25 -125 -25q-115 0 -174.5 65.5t-59.5 184.5q0 118 75 184t198 66q118 0 188 -67t70 -183v-203q0 -142 -92 -219.5t-244 -77.5h-140zM313 391q51 0 93 14v95q0 48 -23.5 75t-69.5 27q-94 0 -94 -102q0 -109 94 -109z" />
    <glyph glyph-name="colon" unicode=":" horiz-adv-x="328" 
d="M78 375v172h172v-172h-172zM78 0v172h172v-172h-172z" />
    <glyph glyph-name="semicolon" unicode=";" horiz-adv-x="340" 
d="M90 375v172h172v-172h-172zM12 -125l78 297h172v-63l-129 -234h-121z" />
    <glyph glyph-name="less" unicode="&#x3c;" 
d="M523 82l-429 223v125l429 222h8v-160l-261 -125l261 -125v-160h-8z" />
    <glyph glyph-name="equal" unicode="=" 
d="M94 406v141h437v-141h-437zM94 164v141h437v-141h-437z" />
    <glyph glyph-name="greater" unicode="&#x3e;" 
d="M94 82v160l261 125l-261 125v160h8l429 -222v-125l-429 -223h-8z" />
    <glyph glyph-name="question" unicode="?" horiz-adv-x="520" 
d="M129 250v31l133 156q29 35 41.5 59t12.5 51q0 18 -8.5 30t-27 17t-36 6.5t-45.5 1.5h-137v148h219q207 0 207 -172q0 -83 -90 -187l-97 -114v-27h-172zM129 0v172h172v-172h-172z" />
    <glyph glyph-name="at" unicode="@" horiz-adv-x="922" 
d="M473 -102q-199 0 -312.5 115.5t-113.5 314.5q0 193 120 311.5t313 118.5q182 0 288.5 -90t106.5 -262q0 -118 -73.5 -184t-196.5 -66h-140q-184 0 -184 172q0 85 50 136.5t134 51.5h144v-274h12q61 0 91 47t30 117q0 121 -67.5 180t-194.5 59q-142 0 -221 -85.5
t-79 -231.5q0 -143 77.5 -229.5t215.5 -86.5q101 0 179 15h8v-105q-70 -24 -187 -24zM465 242h35v188h-35q-74 0 -74 -102q0 -40 18.5 -63t55.5 -23z" />
    <glyph glyph-name="A" unicode="A" horiz-adv-x="750" 
d="M31 0v8q27 112 86 312q34 117 83 250.5t73 179.5h211q24 -45 73 -178.5t84 -251.5q59 -200 86 -312v-8h-188q-20 92 -38 164h-259q-29 -117 -39 -164h-172zM375 613q-30 -70 -93 -300h182q-58 231 -89 300z" />
    <glyph glyph-name="B" unicode="B" horiz-adv-x="680" 
d="M78 0v750h305q234 0 234 -203q0 -105 -90 -152q49 -19 77.5 -61.5t28.5 -103.5q0 -230 -250 -230h-305zM250 445h109q38 0 58.5 22t20.5 60q0 75 -79 75h-109v-157zM250 148h109q51 0 72.5 18.5t21.5 67.5q0 45 -22 62t-72 17h-109v-165z" />
    <glyph glyph-name="C" unicode="C" horiz-adv-x="672" 
d="M398 -8q-168 0 -263.5 89.5t-95.5 254.5v78q0 161 103.5 252.5t271.5 91.5q128 0 211 -31v-219h-156v94q-28 7 -71 7q-87 0 -133 -49t-46 -138v-86q0 -87 48 -141t131 -54h47q39 0 91.5 10.5t80.5 20.5h8v-145q-21 -10 -79 -22.5t-101 -12.5h-47z" />
    <glyph glyph-name="D" unicode="D" horiz-adv-x="758" 
d="M78 0v750h281q176 0 268 -87t92 -233v-94q0 -154 -90 -245t-270 -91h-281zM250 148h109q87 0 133.5 54.5t46.5 149.5v62q0 89 -46.5 138.5t-133.5 49.5h-109v-454z" />
    <glyph glyph-name="E" unicode="E" horiz-adv-x="641" 
d="M266 0q-92 0 -140 53.5t-48 149.5v547h485v-148h-313v-149h281v-148h-281v-71q0 -48 16.5 -67t61.5 -19h250v-148h-312z" />
    <glyph glyph-name="F" unicode="F" horiz-adv-x="562" 
d="M78 0v500q0 250 266 250h187v-148h-187q-46 0 -70 -27t-24 -75v-78h266v-149h-266v-273h-172z" />
    <glyph glyph-name="G" unicode="G" horiz-adv-x="742" 
d="M406 -8q-169 0 -268 89.5t-99 254.5v78q0 87 32 154t87.5 108t126 61.5t153.5 20.5q127 0 234 -39v-149h-8q-103 39 -234 39q-96 0 -153.5 -51.5t-57.5 -143.5v-78q0 -86 51.5 -140.5t135.5 -54.5h39q34 0 71 7v118h-110v148h266v-379q-112 -43 -227 -43h-39z" />
    <glyph glyph-name="H" unicode="H" horiz-adv-x="766" 
d="M78 0v750h172v-289h266v289h171v-750h-171v312h-266v-312h-172z" />
    <glyph glyph-name="I" unicode="I" horiz-adv-x="328" 
d="M78 0v750h172v-750h-172z" />
    <glyph glyph-name="J" unicode="J" horiz-adv-x="484" 
d="M31 0v148h110q51 0 72 24t21 78v352h-171v148h343v-500q0 -123 -63.5 -186.5t-186.5 -63.5h-125z" />
    <glyph glyph-name="K" unicode="K" horiz-adv-x="750" 
d="M78 0v750h172v-285h43l227 285h196v-8l-286 -344l304 -390v-8h-203l-246 316h-35v-316h-172z" />
    <glyph glyph-name="L" unicode="L" horiz-adv-x="562" 
d="M266 0q-92 0 -140 53.5t-48 149.5v547h172v-516q0 -48 16.5 -67t61.5 -19h203v-148h-265z" />
    <glyph glyph-name="M" unicode="M" horiz-adv-x="906" 
d="M78 0v750h172l199 -285l207 285h172v-750h-172v480l-187 -246h-47l-172 246v-480h-172z" />
    <glyph glyph-name="N" unicode="N" horiz-adv-x="766" 
d="M78 0v750h156l282 -445v445h172v-750h-157l-281 445v-445h-172z" />
    <glyph glyph-name="O" unicode="O" horiz-adv-x="766" 
d="M383 -8q-170 0 -257 97.5t-87 273.5v32q0 175 86.5 269t257.5 94q170 0 257 -94t87 -269v-32q0 -176 -87.5 -273.5t-256.5 -97.5zM383 141q91 0 127.5 58t36.5 164v32q0 104 -36.5 159t-127.5 55t-127.5 -55t-36.5 -159v-32q0 -106 36.5 -164t127.5 -58z" />
    <glyph glyph-name="P" unicode="P" horiz-adv-x="672" 
d="M78 0v750h274q281 0 281 -273q0 -149 -82 -219t-215 -70h-86v-188h-172zM250 336h70q72 0 102.5 30t30.5 111q0 73 -30 99t-103 26h-70v-266z" />
    <glyph glyph-name="Q" unicode="Q" horiz-adv-x="766" 
d="M500 -188q-80 0 -126 35.5t-46 109.5v38q-143 16 -216 111t-73 257v32q0 175 86.5 269t257.5 94q170 0 257 -94t87 -269v-32q0 -161 -73 -256.5t-216 -111.5v-15q0 -31 14 -42.5t48 -11.5q58 0 117 19h8v-109q-69 -24 -125 -24zM383 141q91 0 127.5 58t36.5 164v32
q0 104 -36.5 159t-127.5 55t-127.5 -55t-36.5 -159v-32q0 -106 36.5 -164t127.5 -58z" />
    <glyph glyph-name="R" unicode="R" horiz-adv-x="687" 
d="M78 0v750h274q138 0 209.5 -55.5t71.5 -194.5q0 -143 -121 -219q54 -43 108 -137t60 -136v-8h-188q-13 46 -54 121.5t-83 101.5h-105v-223h-172zM250 367h70q72 0 102.5 28t30.5 97q0 67 -29 88.5t-104 21.5h-70v-235z" />
    <glyph glyph-name="S" unicode="S" horiz-adv-x="641" 
d="M266 -8q-45 0 -108 10.5t-103 24.5v145h8q103 -31 203 -31h39q109 0 109 82q0 55 -86 78l-117 31q-156 40 -156 211q0 108 77.5 161.5t199.5 53.5h39q38 0 95.5 -8.5t88.5 -19.5v-144h-8q-29 8 -86 15.5t-90 7.5h-35q-102 0 -102 -66q0 -52 71 -70l117 -32
q86 -23 129 -76t43 -142q0 -120 -77.5 -175.5t-211.5 -55.5h-39z" />
    <glyph glyph-name="T" unicode="T" horiz-adv-x="609" 
d="M219 0v602h-203v148h578v-148h-203v-602h-172z" />
    <glyph glyph-name="U" unicode="U" horiz-adv-x="766" 
d="M383 -8q-144 0 -224.5 71t-80.5 210v477h172v-480q0 -66 32 -97.5t101 -31.5t101 31.5t32 97.5v480h171v-477q0 -138 -84 -209.5t-220 -71.5z" />
    <glyph glyph-name="V" unicode="V" horiz-adv-x="758" 
d="M266 0q-54 123 -123.5 331t-111.5 411v8h188q27 -138 78 -326t86 -272q37 89 92 278t80 320h172v-8q-45 -206 -114.5 -416t-120.5 -326h-226z" />
    <glyph glyph-name="W" unicode="W" horiz-adv-x="1133" 
d="M227 0q-60 137 -114.5 347t-81.5 395v8h188q19 -145 58 -325.5t75 -272.5q39 93 80.5 274t59.5 324h156q19 -141 60 -318.5t81 -279.5q37 101 75.5 278.5t57.5 319.5h187v-8q-31 -201 -85 -403t-110 -339h-234q-76 182 -110 367q-31 -176 -109 -367h-234z" />
    <glyph glyph-name="X" unicode="X" horiz-adv-x="695" 
d="M16 0v8l234 375l-223 359v8h192l130 -210l131 210h176v-8l-218 -346l242 -388v-8h-192l-148 238l-149 -238h-175z" />
    <glyph glyph-name="Y" unicode="Y" horiz-adv-x="699" 
d="M258 0v285l-242 457v8h179l157 -320l164 320h168v-8l-254 -457v-285h-172z" />
    <glyph glyph-name="Z" unicode="Z" horiz-adv-x="633" 
d="M39 0v102q78 96 187.5 256t152.5 244h-324v148h547v-102q-41 -81 -148 -243t-181 -257h329v-148h-563z" />
    <glyph glyph-name="bracketleft" unicode="[" horiz-adv-x="461" 
d="M94 -125v875h304v-125h-132v-625h132v-125h-304z" />
    <glyph glyph-name="backslash" unicode="\" horiz-adv-x="582" 
d="M395 -125l-364 859v16h157l363 -859v-16h-156z" />
    <glyph glyph-name="bracketright" unicode="]" horiz-adv-x="461" 
d="M62 -125v125h133v625h-133v125h305v-875h-305z" />
    <glyph glyph-name="asciicircum" unicode="^" 
d="M31 109v8l223 430h117l223 -430v-8h-156l-125 262l-125 -262h-157z" />
    <glyph glyph-name="underscore" unicode="_" 
d="M31 -141v141h563v-141h-563z" />
    <glyph glyph-name="grave" unicode="`" horiz-adv-x="281" 
d="M0 767v14h184l97 -140v-16h-109z" />
    <glyph glyph-name="a" unicode="a" horiz-adv-x="672" 
d="M230 -8q-84 0 -129.5 47.5t-45.5 132.5v109q0 121 81.5 193.5t207.5 72.5h250v-547h-172v74l-39 -27q-81 -55 -153 -55zM391 180l31 19v207h-63q-132 0 -132 -125v-78q0 -62 62 -62q40 0 102 39z" />
    <glyph glyph-name="b" unicode="b" horiz-adv-x="672" 
d="M78 0v750h172v-277l39 27q79 55 152 55q85 0 130.5 -47.5t45.5 -132.5v-109q0 -121 -81.5 -193.5t-207.5 -72.5h-250zM281 367l-31 -19v-207h63q132 0 132 125v78q0 62 -62 62q-40 0 -102 -39z" />
    <glyph glyph-name="c" unicode="c" horiz-adv-x="555" 
d="M316 -8q-61 0 -109.5 11.5t-87 35.5t-59.5 65.5t-21 98.5v117q0 106 77 170.5t189 64.5q109 0 187 -39v-188h-140v70q-16 8 -47 8q-44 0 -69 -24.5t-25 -68.5v-71q0 -101 109 -101q86 0 164 27h8v-141q-29 -14 -81.5 -24.5t-94.5 -10.5z" />
    <glyph glyph-name="d" unicode="d" horiz-adv-x="672" 
d="M230 -8q-84 0 -129.5 47.5t-45.5 132.5v109q0 121 81.5 193.5t207.5 72.5h78v203h172v-750h-172v74l-39 -27q-81 -55 -153 -55zM391 180l31 19v207h-63q-132 0 -132 -125v-78q0 -62 62 -62q40 0 102 39z" />
    <glyph glyph-name="e" unicode="e" horiz-adv-x="617" 
d="M312 -8q-128 0 -200.5 54t-72.5 169v105q0 113 77.5 174t199.5 61q246 0 246 -180q0 -160 -203 -160h-148v-4q0 -70 117 -70q95 0 180 23h8v-141q-85 -31 -204 -31zM211 324v-8h137q58 0 58 47q0 32 -23 41.5t-67 9.5q-52 0 -78.5 -21t-26.5 -69z" />
    <glyph glyph-name="f" unicode="f" horiz-adv-x="367" 
d="M94 0v406h-86v141h86v16q0 90 51.5 138.5t143.5 48.5h109v-125h-54q-78 0 -78 -70v-8h117v-141h-117v-406h-172z" />
    <glyph glyph-name="g" unicode="g" horiz-adv-x="672" 
d="M125 -188v141h125q91 0 131.5 28.5t40.5 108.5v4l-39 -20q-74 -35 -115 -41q-15 -2 -30 -2q-88 0 -135.5 46.5t-47.5 133.5v70q0 121 81.5 193.5t207.5 72.5h250v-469q0 -124 -77.5 -195t-204.5 -71h-187zM395 207l27 12v187h-63q-132 0 -132 -125v-39q0 -62 62 -62
q44 0 106 27z" />
    <glyph glyph-name="h" unicode="h" horiz-adv-x="687" 
d="M437 0v336q0 36 -10 53t-40 17q-34 0 -106 -47l-31 -19v-340h-172v750h172v-285l23 15q44 29 62.5 40t51.5 23t66 12q78 0 117 -45.5t39 -126.5v-383h-172z" />
    <glyph glyph-name="i" unicode="i" horiz-adv-x="344" 
d="M94 609v141h172v-141h-172zM94 0v406h-78v141h250v-547h-172z" />
    <glyph glyph-name="j" unicode="j" horiz-adv-x="352" 
d="M102 609v141h171v-141h-171zM-16 -188v141h24q52 0 73 20.5t21 73.5v359h-79v141h250v-516q0 -105 -61.5 -162t-156.5 -57h-71z" />
    <glyph glyph-name="k" unicode="k" horiz-adv-x="641" 
d="M78 0v750h172v-391h39l156 188h188v-8l-203 -238l203 -293v-8h-195l-149 219h-39v-219h-172z" />
    <glyph glyph-name="l" unicode="l" horiz-adv-x="344" 
d="M94 0v609h-78v141h250v-750h-172z" />
    <glyph glyph-name="m" unicode="m" horiz-adv-x="1031" 
d="M78 0v547h172v-83l20 16q48 40 86.5 57.5t88.5 17.5q112 0 145 -94h8l23 19q49 40 87.5 57.5t88.5 17.5q77 0 116.5 -45.5t39.5 -126.5v-383h-172v336q0 36 -10.5 53t-40.5 17q-37 0 -101 -47l-27 -19v-340h-172v336q0 36 -10.5 53t-40.5 17q-36 0 -102 -47l-27 -19v-340
h-172z" />
    <glyph glyph-name="n" unicode="n" horiz-adv-x="687" 
d="M78 0v547h172v-83l23 16q55 40 93.5 57.5t86.5 17.5q78 0 117 -45.5t39 -126.5v-383h-172v336q0 36 -10 53t-40 17q-34 0 -106 -47l-31 -19v-340h-172z" />
    <glyph glyph-name="o" unicode="o" horiz-adv-x="641" 
d="M320 -8q-140 0 -210.5 64.5t-70.5 216.5q0 282 281 282q143 0 212.5 -68.5t69.5 -213.5q0 -153 -68 -217t-214 -64zM320 141q59 0 84.5 30t25.5 102q0 73 -25.5 103t-84.5 30t-84 -30t-25 -103q0 -72 25 -102t84 -30z" />
    <glyph glyph-name="p" unicode="p" horiz-adv-x="672" 
d="M78 -188v735h172v-74l39 27q79 55 152 55q85 0 130.5 -47.5t45.5 -132.5v-109q0 -121 -81.5 -193.5t-207.5 -72.5h-78v-188h-172zM281 367l-31 -19v-207h63q132 0 132 125v78q0 62 -62 62q-40 0 -102 -39z" />
    <glyph glyph-name="q" unicode="q" horiz-adv-x="672" 
d="M422 -188v262l-39 -27q-81 -55 -153 -55q-84 0 -129.5 47.5t-45.5 132.5v109q0 121 81.5 193.5t207.5 72.5h250v-735h-172zM391 180l31 19v207h-63q-132 0 -132 -125v-78q0 -62 62 -62q40 0 102 39z" />
    <glyph glyph-name="r" unicode="r" horiz-adv-x="438" 
d="M78 0v547h172v-67q23 35 63 55t82 20h43v-149h-59q-82 0 -129 -54v-352h-172z" />
    <glyph glyph-name="s" unicode="s" horiz-adv-x="539" 
d="M223 -8q-99 0 -184 20v144h8q100 -19 176 -19q97 0 97 31q0 16 -10 23t-33 12l-86 20q-152 34 -152 156q0 89 75.5 132.5t198.5 43.5q78 0 156 -16v-144h-8q-101 15 -152 15q-90 0 -90 -27q0 -11 9.5 -18.5t17.5 -10t27 -6.5l75 -16q152 -32 152 -160q0 -180 -277 -180z
" />
    <glyph glyph-name="t" unicode="t" horiz-adv-x="422" 
d="M422 0h-102q-107 0 -166.5 53.5t-59.5 157.5v195h-86v141h86v141h172v-141h140v-141h-140v-156q0 -60 22 -84.5t79 -24.5h55v-141z" />
    <glyph glyph-name="u" unicode="u" horiz-adv-x="687" 
d="M234 -8q-77 0 -116.5 45.5t-39.5 126.5v383h172v-336q0 -36 10.5 -53t40.5 -17t105 46l31 20v340h172v-547h-172v82l-23 -16q-42 -28 -61.5 -40t-52 -23t-66.5 -11z" />
    <glyph glyph-name="v" unicode="v" horiz-adv-x="578" 
d="M188 0q-51 44 -104 162t-53 244v141h172v-141q0 -89 26 -167t64 -122q36 43 59 120.5t23 168.5v141h172v-141q0 -126 -55.5 -243.5t-108.5 -162.5h-195z" />
    <glyph glyph-name="w" unicode="w" horiz-adv-x="875" 
d="M172 0q-48 41 -94.5 159t-46.5 247v141h172v-141q0 -94 19.5 -171t54.5 -118q35 41 55 118t20 171v141h171v-141q0 -94 20 -171t55 -118q35 41 54.5 118t19.5 171v141h172v-141q0 -126 -52.5 -244t-103.5 -162h-180q-14 12 -38.5 55.5t-35.5 77.5q-11 -33 -38.5 -76
t-43.5 -57h-180z" />
    <glyph glyph-name="x" unicode="x" horiz-adv-x="531" 
d="M0 0v8l179 268l-171 263v8h172l89 -137l90 137h164v-8l-171 -257l179 -274v-8h-172l-96 147l-99 -147h-164z" />
    <glyph glyph-name="y" unicode="y" horiz-adv-x="680" 
d="M141 -188v141h117q93 0 132.5 30t39.5 115v27l-35 -20q-78 -42 -141 -42q-88 0 -136 46t-48 133v305h172v-274q0 -62 63 -62q47 0 101 27l24 12v297h172v-469q0 -124 -77 -195t-205 -71h-179z" />
    <glyph glyph-name="z" unicode="z" horiz-adv-x="523" 
d="M31 0v102q172 170 254 304h-246v141h453v-102q-34 -68 -100 -156t-126 -148h234v-141h-469z" />
    <glyph glyph-name="braceleft" unicode="{" horiz-adv-x="523" 
d="M391 -125q-203 0 -203 172v94q0 57 -24 82t-101 31v117q77 6 101 31t24 82v94q0 172 203 172h101v-125h-47q-52 0 -69 -21t-17 -81v-62q0 -68 -34.5 -101.5t-94.5 -46.5q61 -14 95 -47.5t34 -101.5v-62q0 -60 17 -81t69 -21h47v-125h-101z" />
    <glyph glyph-name="bar" unicode="|" horiz-adv-x="359" 
d="M109 -188v1001h141v-1001h-141z" />
    <glyph glyph-name="braceright" unicode="}" horiz-adv-x="523" 
d="M31 -125v125h47q52 0 69 21t17 81v62q0 68 34.5 101.5t94.5 47.5q-60 13 -94.5 46.5t-34.5 101.5v62q0 60 -17 81t-69 21h-47v125h102q203 0 203 -172v-94q0 -57 24 -82t101 -31v-117q-77 -6 -101 -31t-24 -82v-94q0 -172 -203 -172h-102z" />
    <glyph glyph-name="asciitilde" unicode="~" 
d="M94 230v137q16 29 47 50t70 21q37 0 109 -33.5t98 -33.5q39 0 63 16.5t42 50.5h8v-137q-16 -29 -47 -50t-70 -21q-37 0 -109 33.5t-98 33.5q-63 0 -105 -67h-8z" />
    <glyph glyph-name="exclamdown" unicode="&#xa1;" horiz-adv-x="328" 
d="M250 750v-172h-172v172h172zM238 500l12 -500h-172l12 500h148z" />
    <glyph glyph-name="cent" unicode="&#xa2;" 
d="M313 751v116h125v-110q73 -4 148 -27v-144h-8q-90 23 -195 23q-86 0 -129 -48.5t-43 -138.5v-86q0 -89 41 -142t123 -53h47q73 0 156 31h8v-145q-65 -29 -148 -35v-117h-125v121q-137 16 -209.5 103t-72.5 237v78q0 139 75.5 227t206.5 110z" />
    <glyph glyph-name="sterling" unicode="&#xa3;" 
d="M109 148q18 15 28.5 46t10.5 64v47h-78v148h78v27q0 133 74.5 201.5t211.5 68.5h136v-148h-136q-114 0 -114 -122v-27h188v-148h-188v-47q0 -71 -39 -110h289v-148h-515v148h54z" />
    <glyph glyph-name="currency" unicode="&#xa4;" horiz-adv-x="500" 
d="M256 534h1q70 0 115 -40l71 75l45 -46l-79 -71q35 -47 35 -118q0 -76 -35 -122l75 -74l-44 -44l-69 76q-45 -42 -117 -42q-71 0 -114 40l-67 -74l-43 44l72 70q-37 50 -37 121q0 73 39 123l-76 71l45 46l68 -76q48 41 115 41zM255 471h-1q-53 0 -85.5 -40.5t-32.5 -100.5
q0 -67 36.5 -103t81.5 -36q48 0 83.5 35.5t35.5 106.5q0 56 -31.5 97t-86.5 41z" />
    <glyph glyph-name="yen" unicode="&#xa5;" 
d="M395 125v-125h-172v125h-164v148h164v43l-223 426v8h180l136 -289l141 289h168v-8l-230 -426v-43h164v-148h-164z" />
    <glyph glyph-name="brokenbar" unicode="&#xa6;" horiz-adv-x="359" 
d="M109 406v407h141v-407h-141zM109 -188v407h141v-407h-141z" />
    <glyph glyph-name="section" unicode="&#xa7;" horiz-adv-x="582" 
d="M520 227l-278 136q-148 73 -148 203q0 88 74 136t172 48h191v-148h-191q-67 0 -67 -51q0 -22 10 -33t37 -26l211 -105v-160h-11zM63 336l277 -137q148 -73 148 -203q0 -88 -74 -136t-172 -48h-191v149h191q67 0 67 51q0 22 -10 33.5t-37 24.5l-211 106v160h12z" />
    <glyph glyph-name="dieresis" unicode="&#xa8;" horiz-adv-x="414" 
d="M0 625v125h133v-125h-133zM281 625v125h133v-125h-133z" />
    <glyph glyph-name="copyright" unicode="&#xa9;" horiz-adv-x="879" 
d="M441 16q-167 0 -280.5 103t-113.5 264t113.5 264t280.5 103t279 -102.5t112 -264.5t-112 -264.5t-279 -102.5zM441 86q139 0 220 82t81 215t-81 215t-220 82t-221.5 -82.5t-82.5 -214.5t82.5 -214.5t221.5 -82.5zM480 180q-101 0 -169.5 49.5t-68.5 153.5t67 153.5
t168 49.5q43 0 97 -16v-54q-58 15 -97 15q-61 0 -99 -37.5t-38 -110.5t39.5 -111t100.5 -38q48 0 94 16v-55q-49 -15 -94 -15z" />
    <glyph glyph-name="ordfeminine" unicode="&#xaa;" horiz-adv-x="543" 
d="M188 328q-67 0 -104 34t-37 99v86q0 94 63.5 148.5t160.5 54.5h194v-422h-133v54l-27 -15q-71 -39 -117 -39zM309 445l23 15v204h-47q-105 0 -105 -98v-104q0 -48 49 -48q28 0 80 31z" />
    <glyph glyph-name="guillemotleft" unicode="&#xab;" horiz-adv-x="586" 
d="M520 125l-207 156v110l207 156h11v-125l-117 -86l117 -86v-125h-11zM270 125l-207 156v110l207 156h11v-125l-117 -86l117 -86v-125h-11z" />
    <glyph glyph-name="logicalnot" unicode="&#xac;" 
d="M391 148v149h-297v141h437v-290h-140z" />
    <glyph glyph-name="registered" unicode="&#xae;" horiz-adv-x="879" 
d="M441 16q-167 0 -280.5 103t-113.5 264t113.5 264t280.5 103t279 -102.5t112 -264.5t-112 -264.5t-279 -102.5zM441 86q139 0 220 82t81 215t-81 215t-220 82t-221.5 -82.5t-82.5 -214.5t82.5 -214.5t221.5 -82.5zM281 180v406h149q168 0 168 -125q0 -41 -22.5 -71.5
t-59.5 -41.5l93 -160v-8h-101l-76 136h-53v-136h-98zM379 375h39q36 0 59 21t23 65q0 36 -23 53t-59 17h-39v-156z" />
    <glyph glyph-name="macron" unicode="&#xaf;" horiz-adv-x="324" 
d="M324 625h-324v105h324v-105z" />
    <glyph glyph-name="macron" unicode="&#x2c9;" horiz-adv-x="324" 
d="M324 625h-324v105h324v-105z" />
    <glyph glyph-name="degree" unicode="&#xb0;" horiz-adv-x="516" 
d="M252 320q-98 0 -144 50t-46 167q0 120 46 169t144 49q97 0 142.5 -49.5t45.5 -168.5q0 -116 -46 -166.5t-142 -50.5zM252 417q37 0 49.5 24t12.5 96q0 73 -12.5 96.5t-49.5 23.5q-39 0 -52 -23.5t-13 -96.5q0 -72 13 -96t52 -24z" />
    <glyph glyph-name="plusminus" unicode="&#xb1;" 
d="M242 148v149h-148v141h148v148h141v-148h148v-141h-148v-149h-141zM94 -141v141h437v-141h-437z" />
    <glyph glyph-name="twosuperior" unicode="&#xb2;" horiz-adv-x="412" 
d="M32 324v72q0 44 21 74t74 61l65 38q46 27 46 54q0 18 -13.5 24t-47.5 6h-129v97h159q75 0 116.5 -32.5t41.5 -90.5q0 -32 -15.5 -57t-34.5 -39t-59 -37l-56 -32q-36 -21 -37 -41h213v-97h-344z" />
    <glyph glyph-name="threesuperior" unicode="&#xb3;" horiz-adv-x="412" 
d="M48 324v97h148q64 0 64 39q0 36 -64 36h-97v83h110q40 22 40 46q0 28 -53 28h-143v97h154q81 0 125 -23t44 -82q0 -51 -51 -85q61 -28 61 -100q0 -63 -50 -99.5t-129 -36.5h-159z" />
    <glyph glyph-name="acute" unicode="&#xb4;" horiz-adv-x="281" 
d="M281 767l-172 -142h-109v16l98 140h183v-14z" />
    <glyph glyph-name="mu" unicode="&#xb5;" horiz-adv-x="687" 
d="M78 547h172v-336q0 -70 94 -70q56 0 93 39v367h172v-422q0 -85 28 -125h-172q-14 28 -20 55q-46 -55 -109 -55q-58 0 -86 31v-219h-172v735z" />
    <glyph glyph-name="mu" unicode="&#x3bc;" horiz-adv-x="687" 
d="M78 547h172v-336q0 -70 94 -70q56 0 93 39v367h172v-422q0 -85 28 -125h-172q-14 28 -20 55q-46 -55 -109 -55q-58 0 -86 31v-219h-172v735z" />
    <glyph glyph-name="paragraph" unicode="&#xb6;" horiz-adv-x="859" 
d="M609 -188v938h172v-938h-172zM375 -188v376h-62q-123 0 -202.5 73t-79.5 208t79.5 208t202.5 73h234v-938h-172z" />
    <glyph glyph-name="periodcentered" unicode="&#xb7;" horiz-adv-x="328" 
d="M78 273v172h172v-172h-172z" />
    <glyph glyph-name="periodcentered" unicode="&#x2219;" horiz-adv-x="328" 
d="M78 273v172h172v-172h-172z" />
    <glyph glyph-name="cedilla" unicode="&#xb8;" horiz-adv-x="238" 
d="M0 -188v71h94q54 0 54 31q0 17 -12.5 28t-32.5 21q-3 1 -5 2v12h78q26 -12 44 -35.5t18 -46.5q0 -42 -31 -62.5t-78 -20.5h-129z" />
    <glyph glyph-name="onesuperior" unicode="&#xb9;" horiz-adv-x="412" 
d="M168 324v306l-107 -36h-14v99l166 57h81v-426h-126z" />
    <glyph glyph-name="ordmasculine" unicode="&#xba;" horiz-adv-x="500" 
d="M250 328q-104 0 -153.5 50.5t-49.5 160.5q0 111 49.5 161t153.5 50t153.5 -50t49.5 -161q0 -110 -49.5 -160.5t-153.5 -50.5zM250 414q41 0 55.5 27t14.5 98t-14.5 98t-55.5 27t-55.5 -27t-14.5 -98t14.5 -98t55.5 -27z" />
    <glyph glyph-name="guillemotright" unicode="&#xbb;" horiz-adv-x="586" 
d="M316 547l207 -156v-110l-207 -156h-11v125l117 86l-117 86v125h11zM66 547l207 -156v-110l-207 -156h-11v125l117 86l-117 86v125h11z" />
    <glyph glyph-name="onequarter" unicode="&#xbc;" horiz-adv-x="1031" 
d="M297 0v16l355 734h82v-16l-355 -734h-82zM217 324v306l-108 -36h-13v99l166 57h81v-426h-126zM802 0v65h-199v73q69 123 91 288h136q-25 -155 -95 -263h67v75h126v-75h43v-98h-43v-65h-126z" />
    <glyph glyph-name="onehalf" unicode="&#xbd;" horiz-adv-x="1031" 
d="M297 0v16l355 734h82v-16l-355 -734h-82zM217 324v306l-108 -36h-13v99l166 57h81v-426h-126zM642 0v71q0 45 20.5 75t73.5 61l66 38q39 24 45 44q1 5 1 10q0 17 -14 23.5t-48 6.5h-129v97h159q75 0 117 -32.5t42 -90.5q0 -33 -16 -58t-34.5 -38t-59.5 -37l-55 -32
q-37 -21 -38 -41h213v-97h-343z" />
    <glyph glyph-name="threequarters" unicode="&#xbe;" horiz-adv-x="1031" 
d="M297 0v16l355 734h82v-16l-355 -734h-82zM802 0v65h-199v73q69 123 91 288h136q-25 -155 -95 -263h67v75h126v-75h43v-98h-43v-65h-126zM67 324v97h149q63 0 63 39q0 36 -63 36h-98v83h111q40 22 40 46q0 28 -53 28h-144v97h155q81 0 125 -23t44 -82q0 -51 -51 -85
q60 -28 60 -100q0 -63 -50 -99.5t-128 -36.5h-160z" />
    <glyph glyph-name="questiondown" unicode="&#xbf;" horiz-adv-x="520" 
d="M391 750v-172h-172v172h172zM391 500v-31l-133 -156q-55 -64 -55 -110q0 -18 9 -30t27 -17t35.5 -6.5t45.5 -1.5h137v-148h-219q-207 0 -207 172q0 82 90 187l98 114v27h172z" />
    <glyph glyph-name="Agrave" unicode="&#xc0;" horiz-adv-x="750" 
d="M31 0v8q27 112 86 312q34 117 83 250.5t73 179.5h211q24 -45 73 -178.5t84 -251.5q59 -200 86 -312v-8h-188q-20 92 -38 164h-259q-29 -117 -39 -164h-172zM375 613q-30 -70 -93 -300h182q-58 231 -89 300zM230 970v14h184l98 -140v-16h-110z" />
    <glyph glyph-name="Aacute" unicode="&#xc1;" horiz-adv-x="750" 
d="M31 0v8q27 112 86 312q34 117 83 250.5t73 179.5h211q24 -45 73 -178.5t84 -251.5q59 -200 86 -312v-8h-188q-20 92 -38 164h-259q-29 -117 -39 -164h-172zM375 613q-30 -70 -93 -300h182q-58 231 -89 300zM520 970l-172 -142h-110v16l98 140h184v-14z" />
    <glyph glyph-name="Acircumflex" unicode="&#xc2;" horiz-adv-x="750" 
d="M31 0v8q27 112 86 312q34 117 83 250.5t73 179.5h211q24 -45 73 -178.5t84 -251.5q59 -200 86 -312v-8h-188q-20 92 -38 164h-259q-29 -117 -39 -164h-172zM375 613q-30 -70 -93 -300h182q-58 231 -89 300zM594 828h-110l-105 94h-8l-105 -94h-110v16l141 164h157
l140 -164v-16z" />
    <glyph glyph-name="Atilde" unicode="&#xc3;" horiz-adv-x="750" 
d="M31 0v8q27 112 86 312q34 117 83 250.5t73 179.5h211q24 -45 73 -178.5t84 -251.5q59 -200 86 -312v-8h-188q-20 92 -38 164h-259q-29 -117 -39 -164h-172zM375 613q-30 -70 -93 -300h182q-58 231 -89 300zM547 894q-15 -23 -45 -44.5t-61 -21.5q-28 0 -75 32t-65 32
q-21 0 -39.5 -11.5t-26.5 -21t-24 -31.5h-8v98q16 22 42 40t56 18q28 0 75.5 -31t64.5 -31q50 0 98 62h8v-90z" />
    <glyph glyph-name="Adieresis" unicode="&#xc4;" horiz-adv-x="750" 
d="M31 0v8q27 112 86 312q34 117 83 250.5t73 179.5h211q24 -45 73 -178.5t84 -251.5q59 -200 86 -312v-8h-188q-20 92 -38 164h-259q-29 -117 -39 -164h-172zM375 613q-30 -70 -93 -300h182q-58 231 -89 300zM169 828v125h133v-125h-133zM450 828v125h133v-125h-133z" />
    <glyph glyph-name="Aring" unicode="&#xc5;" horiz-adv-x="750" 
d="M31 0v8q27 112 86 312q34 117 83 250.5t73 179.5h211q24 -45 73 -178.5t84 -251.5q59 -200 86 -312v-8h-188q-20 92 -38 164h-259q-29 -117 -39 -164h-172zM375 613q-30 -70 -93 -300h182q-58 231 -89 300zM375 828q-137 0 -137 102q0 48 38 74.5t99 26.5
q62 0 99.5 -25.5t37.5 -75.5q0 -49 -38 -75.5t-99 -26.5zM375 867q33 0 49.5 18.5t16.5 44.5t-16.5 44t-49.5 18t-49.5 -18t-16.5 -44t16.5 -44.5t49.5 -18.5z" />
    <glyph glyph-name="AE" unicode="&#xc6;" horiz-adv-x="1000" 
d="M31 0v8q27 112 86 312q34 117 83 250.5t73 179.5h649v-148h-313v-149h282v-148h-282v-71q0 -48 16 -67t62 -19h250v-148h-312q-82 0 -128.5 43t-55.5 121h-199q-26 -103 -39 -164h-172zM371 602q-38 -97 -90 -290h156v290h-66z" />
    <glyph glyph-name="Ccedilla" unicode="&#xc7;" horiz-adv-x="672" 
d="M398 -8q-168 0 -263.5 89.5t-95.5 254.5v78q0 161 103.5 252.5t271.5 91.5q128 0 211 -31v-219h-156v94q-28 7 -71 7q-87 0 -133 -49t-46 -138v-86q0 -87 48 -141t131 -54h47q39 0 91.5 10.5t80.5 20.5h8v-145q-21 -10 -79 -22.5t-101 -12.5h-47zM252 -188v71h94
q54 0 54 31q0 17 -12.5 28t-32.5 21q-3 1 -5 2v12h78q26 -12 44 -35.5t18 -46.5q0 -42 -31 -62.5t-78 -20.5h-129z" />
    <glyph glyph-name="Egrave" unicode="&#xc8;" horiz-adv-x="641" 
d="M266 0q-92 0 -140 53.5t-48 149.5v547h485v-148h-313v-149h281v-148h-281v-71q0 -48 16.5 -67t61.5 -19h250v-148h-312zM180 970v14h183l98 -140v-16h-109z" />
    <glyph glyph-name="Eacute" unicode="&#xc9;" horiz-adv-x="641" 
d="M266 0q-92 0 -140 53.5t-48 149.5v547h485v-148h-313v-149h281v-148h-281v-71q0 -48 16.5 -67t61.5 -19h250v-148h-312zM469 970l-172 -142h-110v16l98 140h184v-14z" />
    <glyph glyph-name="Ecircumflex" unicode="&#xca;" horiz-adv-x="641" 
d="M266 0q-92 0 -140 53.5t-48 149.5v547h485v-148h-313v-149h281v-148h-281v-71q0 -48 16.5 -67t61.5 -19h250v-148h-312zM539 828h-109l-106 94h-8l-105 -94h-109v16l140 164h157l140 -164v-16z" />
    <glyph glyph-name="Edieresis" unicode="&#xcb;" horiz-adv-x="641" 
d="M266 0q-92 0 -140 53.5t-48 149.5v547h485v-148h-313v-149h281v-148h-281v-71q0 -48 16.5 -67t61.5 -19h250v-148h-312zM114 828v125h133v-125h-133zM396 828v125h132v-125h-132z" />
    <glyph glyph-name="Igrave" unicode="&#xcc;" horiz-adv-x="328" 
d="M78 0v750h172v-750h-172zM20 970v14h183l98 -140v-16h-110z" />
    <glyph glyph-name="Iacute" unicode="&#xcd;" horiz-adv-x="328" 
d="M78 0v750h172v-750h-172zM309 970l-172 -142h-110v16l98 140h184v-14z" />
    <glyph glyph-name="Icircumflex" unicode="&#xce;" horiz-adv-x="328" 
d="M78 0v750h172v-750h-172zM383 828h-110l-105 94h-8l-105 -94h-110v16l141 164h157l140 -164v-16z" />
    <glyph glyph-name="Idieresis" unicode="&#xcf;" horiz-adv-x="328" 
d="M78 0v750h172v-750h-172zM-42 828v125h133v-125h-133zM239 828v125h133v-125h-133z" />
    <glyph glyph-name="Eth" unicode="&#xd0;" horiz-adv-x="758" 
d="M78 0v328h-51v110h51v312h281q176 0 268 -87t92 -233v-94q0 -154 -90 -245t-270 -91h-281zM250 148h109q87 0 133.5 54.5t46.5 149.5v62q0 89 -46.5 138.5t-133.5 49.5h-109v-164h103v-110h-103v-180z" />
    <glyph glyph-name="Ntilde" unicode="&#xd1;" horiz-adv-x="766" 
d="M78 0v750h156l282 -445v445h172v-750h-157l-281 445v-445h-172zM555 894q-15 -23 -45 -44.5t-61 -21.5q-28 0 -75 32t-65 32q-21 0 -39.5 -11.5t-26.5 -21t-24 -31.5h-8v98q16 22 42 40t56 18q28 0 75.5 -31t64.5 -31q21 0 41 10.5t31 21.5t26 30h8v-90z" />
    <glyph glyph-name="Ograve" unicode="&#xd2;" horiz-adv-x="766" 
d="M383 -8q-170 0 -257 97.5t-87 273.5v32q0 175 86.5 269t257.5 94q170 0 257 -94t87 -269v-32q0 -176 -87.5 -273.5t-256.5 -97.5zM383 141q91 0 127.5 58t36.5 164v32q0 104 -36.5 159t-127.5 55t-127.5 -55t-36.5 -159v-32q0 -106 36.5 -164t127.5 -58zM238 970v14h184
l98 -140v-16h-110z" />
    <glyph glyph-name="Oacute" unicode="&#xd3;" horiz-adv-x="766" 
d="M383 -8q-170 0 -257 97.5t-87 273.5v32q0 175 86.5 269t257.5 94q170 0 257 -94t87 -269v-32q0 -176 -87.5 -273.5t-256.5 -97.5zM383 141q91 0 127.5 58t36.5 164v32q0 104 -36.5 159t-127.5 55t-127.5 -55t-36.5 -159v-32q0 -106 36.5 -164t127.5 -58zM527 970
l-172 -142h-109v16l98 140h183v-14z" />
    <glyph glyph-name="Ocircumflex" unicode="&#xd4;" horiz-adv-x="766" 
d="M383 -8q-170 0 -257 97.5t-87 273.5v32q0 175 86.5 269t257.5 94q170 0 257 -94t87 -269v-32q0 -176 -87.5 -273.5t-256.5 -97.5zM383 141q91 0 127.5 58t36.5 164v32q0 104 -36.5 159t-127.5 55t-127.5 -55t-36.5 -159v-32q0 -106 36.5 -164t127.5 -58zM602 828h-110
l-105 94h-8l-106 -94h-109v16l141 164h157l140 -164v-16z" />
    <glyph glyph-name="Otilde" unicode="&#xd5;" horiz-adv-x="766" 
d="M383 -8q-170 0 -257 97.5t-87 273.5v32q0 175 86.5 269t257.5 94q170 0 257 -94t87 -269v-32q0 -176 -87.5 -273.5t-256.5 -97.5zM383 141q91 0 127.5 58t36.5 164v32q0 104 -36.5 159t-127.5 55t-127.5 -55t-36.5 -159v-32q0 -106 36.5 -164t127.5 -58zM555 894
q-15 -23 -45 -44.5t-61 -21.5q-28 0 -75 32t-65 32q-21 0 -39.5 -11.5t-26.5 -21t-24 -31.5h-8v98q16 22 42 40t56 18q28 0 75.5 -31t64.5 -31q21 0 41 10.5t31 21.5t26 30h8v-90z" />
    <glyph glyph-name="Odieresis" unicode="&#xd6;" horiz-adv-x="766" 
d="M383 -8q-170 0 -257 97.5t-87 273.5v32q0 175 86.5 269t257.5 94q170 0 257 -94t87 -269v-32q0 -176 -87.5 -273.5t-256.5 -97.5zM383 141q91 0 127.5 58t36.5 164v32q0 104 -36.5 159t-127.5 55t-127.5 -55t-36.5 -159v-32q0 -106 36.5 -164t127.5 -58zM177 828v125h133
v-125h-133zM458 828v125h133v-125h-133z" />
    <glyph glyph-name="multiply" unicode="&#xd7;" 
d="M193 585l119 -118l119 119l99 -100l-119 -119l119 -119l-99 -100l-119 120l-119 -119l-99 100l118 118l-118 118z" />
    <glyph glyph-name="Oslash" unicode="&#xd8;" horiz-adv-x="766" 
d="M39 0v12l75 92q-75 93 -75 259v32q0 175 86.5 269t257.5 94q131 0 216 -59l42 51h86v-12l-74 -90q74 -92 74 -253v-32q0 -176 -87.5 -273.5t-256.5 -97.5q-131 0 -215 61l-43 -53h-86zM219 363q0 -68 13 -114l263 322q-38 38 -112 38q-91 0 -127.5 -55t-36.5 -159v-32z
M383 141q91 0 127.5 58t36.5 164v32q0 64 -13 107l-263 -322q39 -39 112 -39z" />
    <glyph glyph-name="Ugrave" unicode="&#xd9;" horiz-adv-x="766" 
d="M383 -8q-144 0 -224.5 71t-80.5 210v477h172v-480q0 -66 32 -97.5t101 -31.5t101 31.5t32 97.5v480h171v-477q0 -138 -84 -209.5t-220 -71.5zM242 970v14h184l97 -140v-16h-109z" />
    <glyph glyph-name="Uacute" unicode="&#xda;" horiz-adv-x="766" 
d="M383 -8q-144 0 -224.5 71t-80.5 210v477h172v-480q0 -66 32 -97.5t101 -31.5t101 31.5t32 97.5v480h171v-477q0 -138 -84 -209.5t-220 -71.5zM523 970l-171 -142h-110v16l98 140h183v-14z" />
    <glyph glyph-name="Ucircumflex" unicode="&#xdb;" horiz-adv-x="766" 
d="M383 -8q-144 0 -224.5 71t-80.5 210v477h172v-480q0 -66 32 -97.5t101 -31.5t101 31.5t32 97.5v480h171v-477q0 -138 -84 -209.5t-220 -71.5zM602 828h-110l-105 94h-8l-106 -94h-109v16l141 164h157l140 -164v-16z" />
    <glyph glyph-name="Udieresis" unicode="&#xdc;" horiz-adv-x="766" 
d="M383 -8q-144 0 -224.5 71t-80.5 210v477h172v-480q0 -66 32 -97.5t101 -31.5t101 31.5t32 97.5v480h171v-477q0 -138 -84 -209.5t-220 -71.5zM177 828v125h133v-125h-133zM458 828v125h133v-125h-133z" />
    <glyph glyph-name="Yacute" unicode="&#xdd;" horiz-adv-x="699" 
d="M258 0v285l-242 457v8h179l157 -320l164 320h168v-8l-254 -457v-285h-172zM498 970l-172 -142h-109v16l97 140h184v-14z" />
    <glyph glyph-name="Thorn" unicode="&#xde;" horiz-adv-x="672" 
d="M78 0v750h172v-78h102q281 0 281 -258q0 -143 -81.5 -208t-215.5 -65h-86v-141h-172zM320 523h-70v-234h70q73 0 103 26t30 99q0 67 -29 88t-104 21z" />
    <glyph glyph-name="germandbls" unicode="&#xdf;" horiz-adv-x="750" 
d="M488 -8q-123 0 -172 20v144h8q54 -19 133 -19q83 0 83 35q0 8 -2.5 14t-5.5 9.5t-10.5 8t-12 6t-17.5 6.5t-19 7l-51 19q-102 39 -102 145q0 70 75 121q34 24 44 38.5t10 31.5q0 21 -19 34t-51 13q-23 0 -38.5 -3t-35 -14t-29.5 -38t-10 -70v-500h-172v406h-86v141h86v8
q0 97 80.5 146t208.5 49q53 0 105 -14t92.5 -48.5t40.5 -82.5q0 -13 -1.5 -24t-4.5 -21t-6 -17.5t-9 -15.5l-9.5 -13t-12 -12t-11.5 -10t-12.5 -10t-11.5 -9t-9.5 -7.5t-10.5 -8t-8.5 -8.5t-8 -11t-4.5 -12.5t-2 -15.5q0 -33 51 -55l47 -19q63 -27 92 -60.5t29 -99.5
q0 -90 -63.5 -137t-167.5 -47z" />
    <glyph glyph-name="agrave" unicode="&#xe0;" horiz-adv-x="672" 
d="M230 -8q-84 0 -129.5 47.5t-45.5 132.5v109q0 121 81.5 193.5t207.5 72.5h250v-547h-172v74l-39 -27q-81 -55 -153 -55zM391 180l31 19v207h-63q-132 0 -132 -125v-78q0 -62 62 -62q40 0 102 39zM195 767v14h184l98 -140v-16h-110z" />
    <glyph glyph-name="aacute" unicode="&#xe1;" horiz-adv-x="672" 
d="M230 -8q-84 0 -129.5 47.5t-45.5 132.5v109q0 121 81.5 193.5t207.5 72.5h250v-547h-172v74l-39 -27q-81 -55 -153 -55zM391 180l31 19v207h-63q-132 0 -132 -125v-78q0 -62 62 -62q40 0 102 39zM508 767l-172 -142h-109v16l97 140h184v-14z" />
    <glyph glyph-name="acircumflex" unicode="&#xe2;" horiz-adv-x="672" 
d="M230 -8q-84 0 -129.5 47.5t-45.5 132.5v109q0 121 81.5 193.5t207.5 72.5h250v-547h-172v74l-39 -27q-81 -55 -153 -55zM391 180l31 19v207h-63q-132 0 -132 -125v-78q0 -62 62 -62q40 0 102 39zM570 625h-109l-106 94h-7l-106 -94h-109v16l140 164h158l139 -164v-16z
" />
    <glyph glyph-name="atilde" unicode="&#xe3;" horiz-adv-x="672" 
d="M230 -8q-84 0 -129.5 47.5t-45.5 132.5v109q0 121 81.5 193.5t207.5 72.5h250v-547h-172v74l-39 -27q-81 -55 -153 -55zM391 180l31 19v207h-63q-132 0 -132 -125v-78q0 -62 62 -62q40 0 102 39zM523 690q-14 -22 -44 -43.5t-61 -21.5q-29 0 -76 31.5t-65 31.5
q-21 0 -39.5 -11.5t-25.5 -20l-25 -31.5h-7v98q15 21 41 39.5t56 18.5q29 0 76.5 -31t64.5 -31q21 0 41 10.5t31 21.5t26 30h7v-91z" />
    <glyph glyph-name="adieresis" unicode="&#xe4;" horiz-adv-x="672" 
d="M230 -8q-84 0 -129.5 47.5t-45.5 132.5v109q0 121 81.5 193.5t207.5 72.5h250v-547h-172v74l-39 -27q-81 -55 -153 -55zM391 180l31 19v207h-63q-132 0 -132 -125v-78q0 -62 62 -62q40 0 102 39zM142 625v125h132v-125h-132zM423 625v125h133v-125h-133z" />
    <glyph glyph-name="aring" unicode="&#xe5;" horiz-adv-x="672" 
d="M230 -8q-84 0 -129.5 47.5t-45.5 132.5v109q0 121 81.5 193.5t207.5 72.5h250v-547h-172v74l-39 -27q-81 -55 -153 -55zM391 180l31 19v207h-63q-132 0 -132 -125v-78q0 -62 62 -62q40 0 102 39zM348 625q-137 0 -137 102q0 48 38 74.5t99 26.5q62 0 99 -25.5t37 -75.5
q0 -49 -37.5 -75.5t-98.5 -26.5zM348 664q33 0 49.5 18.5t16.5 44.5t-16.5 44t-49.5 18t-50 -18t-17 -44t17 -44.5t50 -18.5z" />
    <glyph glyph-name="ae" unicode="&#xe6;" horiz-adv-x="1000" 
d="M695 -8q-183 0 -245 104l-28 -22l-39 -27q-81 -55 -153 -55q-84 0 -129.5 47.5t-45.5 132.5v109q0 121 81.5 193.5t207.5 72.5h355q246 0 246 -180q0 -160 -203 -160h-148v-3q0 -63 117 -63q95 0 180 23h7v-141q-84 -31 -203 -31zM391 180l31 19v113q0 52 17 94h-80
q-132 0 -132 -125v-78q0 -62 62 -62q40 0 102 39zM594 316v-7h136q59 0 59 46q0 32 -23 41.5t-67 9.5q-52 0 -78.5 -21t-26.5 -69z" />
    <glyph glyph-name="ccedilla" unicode="&#xe7;" horiz-adv-x="555" 
d="M316 -8q-61 0 -109.5 11.5t-87 35.5t-59.5 65.5t-21 98.5v117q0 106 77 170.5t189 64.5q109 0 187 -39v-188h-140v70q-16 8 -47 8q-44 0 -69 -24.5t-25 -68.5v-71q0 -101 109 -101q86 0 164 27h8v-141q-29 -14 -81.5 -24.5t-94.5 -10.5zM150 -188v71h94q55 0 55 31
q0 4 -1 8t-3 8t-4 6.5t-6 6t-6 5t-7.5 5t-7.5 4.5t-8.5 4t-7.5 4v12h78q27 -12 45 -35.5t18 -46.5q0 -42 -31 -62.5t-79 -20.5h-129z" />
    <glyph glyph-name="egrave" unicode="&#xe8;" horiz-adv-x="617" 
d="M312 -8q-128 0 -200.5 54t-72.5 169v105q0 113 77.5 174t199.5 61q246 0 246 -180q0 -160 -203 -160h-148v-4q0 -70 117 -70q95 0 180 23h8v-141q-85 -31 -204 -31zM211 324v-8h137q58 0 58 47q0 32 -23 41.5t-67 9.5q-52 0 -78.5 -21t-26.5 -69zM164 767v14h184l97 -140
v-16h-109z" />
    <glyph glyph-name="eacute" unicode="&#xe9;" horiz-adv-x="617" 
d="M312 -8q-128 0 -200.5 54t-72.5 169v105q0 113 77.5 174t199.5 61q246 0 246 -180q0 -160 -203 -160h-148v-4q0 -70 117 -70q95 0 180 23h8v-141q-85 -31 -204 -31zM211 324v-8h137q58 0 58 47q0 32 -23 41.5t-67 9.5q-52 0 -78.5 -21t-26.5 -69zM453 767l-172 -142h-109
v16l98 140h183v-14z" />
    <glyph glyph-name="ecircumflex" unicode="&#xea;" horiz-adv-x="617" 
d="M312 -8q-128 0 -200.5 54t-72.5 169v105q0 113 77.5 174t199.5 61q246 0 246 -180q0 -160 -203 -160h-148v-4q0 -70 117 -70q95 0 180 23h8v-141q-85 -31 -204 -31zM211 324v-8h137q58 0 58 47q0 32 -23 41.5t-67 9.5q-52 0 -78.5 -21t-26.5 -69zM527 625h-109l-106 94
h-7l-106 -94h-109v16l140 164h158l139 -164v-16z" />
    <glyph glyph-name="edieresis" unicode="&#xeb;" horiz-adv-x="617" 
d="M312 -8q-128 0 -200.5 54t-72.5 169v105q0 113 77.5 174t199.5 61q246 0 246 -180q0 -160 -203 -160h-148v-4q0 -70 117 -70q95 0 180 23h8v-141q-85 -31 -204 -31zM211 324v-8h137q58 0 58 47q0 32 -23 41.5t-67 9.5q-52 0 -78.5 -21t-26.5 -69zM103 625v125h132v-125
h-132zM384 625v125h133v-125h-133z" />
    <glyph glyph-name="igrave" unicode="&#xec;" horiz-adv-x="344" 
d="M94 0v406h-78v141h250v-547h-172zM4 767v14h183l98 -140v-16h-109z" />
    <glyph glyph-name="iacute" unicode="&#xed;" horiz-adv-x="344" 
d="M94 0v406h-78v141h250v-547h-172zM328 767l-172 -142h-109v16l98 140h183v-14z" />
    <glyph glyph-name="icircumflex" unicode="&#xee;" horiz-adv-x="344" 
d="M94 0v406h-78v141h250v-547h-172zM383 625h-110l-105 94h-8l-105 -94h-110v16l141 164h157l140 -164v-16z" />
    <glyph glyph-name="idieresis" unicode="&#xef;" horiz-adv-x="344" 
d="M94 0v406h-78v141h250v-547h-172zM-46 625v125h133v-125h-133zM235 625v125h133v-125h-133z" />
    <glyph glyph-name="eth" unicode="&#xf0;" horiz-adv-x="672" 
d="M652 613h-58v-613h-172v74l-39 -27q-81 -55 -153 -55q-84 0 -129.5 47.5t-45.5 132.5v109q0 121 81.5 193.5t207.5 72.5h78v66h-121v86h121v51h172v-51h58v-86zM391 180l31 19v207h-63q-132 0 -132 -125v-78q0 -62 62 -62q40 0 102 39z" />
    <glyph glyph-name="ntilde" unicode="&#xf1;" horiz-adv-x="687" 
d="M78 0v547h172v-83l23 16q55 40 93.5 57.5t86.5 17.5q78 0 117 -45.5t39 -126.5v-383h-172v336q0 36 -10 53t-40 17q-34 0 -106 -47l-31 -19v-340h-172zM516 690q-16 -23 -45.5 -44t-60.5 -21q-29 0 -75.5 31.5t-64.5 31.5q-21 0 -39.5 -11t-26.5 -21l-24 -31h-8v98
q14 21 41 39.5t57 18.5q28 0 75.5 -31t64.5 -31q21 0 41 10.5t31 21.5t26 30h8v-91z" />
    <glyph glyph-name="ograve" unicode="&#xf2;" horiz-adv-x="641" 
d="M320 -8q-140 0 -210.5 64.5t-70.5 216.5q0 282 281 282q143 0 212.5 -68.5t69.5 -213.5q0 -153 -68 -217t-214 -64zM320 141q59 0 84.5 30t25.5 102q0 73 -25.5 103t-84.5 30t-84 -30t-25 -103q0 -72 25 -102t84 -30zM176 767v14h183l98 -140v-16h-109z" />
    <glyph glyph-name="oacute" unicode="&#xf3;" horiz-adv-x="641" 
d="M320 -8q-140 0 -210.5 64.5t-70.5 216.5q0 282 281 282q143 0 212.5 -68.5t69.5 -213.5q0 -153 -68 -217t-214 -64zM320 141q59 0 84.5 30t25.5 102q0 73 -25.5 103t-84.5 30t-84 -30t-25 -103q0 -72 25 -102t84 -30zM465 767l-172 -142h-109v16l97 140h184v-14z" />
    <glyph glyph-name="ocircumflex" unicode="&#xf4;" horiz-adv-x="641" 
d="M320 -8q-140 0 -210.5 64.5t-70.5 216.5q0 282 281 282q143 0 212.5 -68.5t69.5 -213.5q0 -153 -68 -217t-214 -64zM320 141q59 0 84.5 30t25.5 102q0 73 -25.5 103t-84.5 30t-84 -30t-25 -103q0 -72 25 -102t84 -30zM539 625h-109l-106 94h-8l-105 -94h-109v16l140 164
h157l140 -164v-16z" />
    <glyph glyph-name="otilde" unicode="&#xf5;" horiz-adv-x="641" 
d="M320 -8q-140 0 -210.5 64.5t-70.5 216.5q0 282 281 282q143 0 212.5 -68.5t69.5 -213.5q0 -153 -68 -217t-214 -64zM320 141q59 0 84.5 30t25.5 102q0 73 -25.5 103t-84.5 30t-84 -30t-25 -103q0 -72 25 -102t84 -30zM492 690q-14 -22 -44 -43.5t-61 -21.5
q-29 0 -76 31.5t-65 31.5q-21 0 -39.5 -11.5t-25.5 -20l-25 -31.5h-8v98q16 22 42 40t56 18q29 0 76.5 -31t64.5 -31q31 0 53 16.5t44 45.5h8v-91z" />
    <glyph glyph-name="odieresis" unicode="&#xf6;" horiz-adv-x="641" 
d="M320 -8q-140 0 -210.5 64.5t-70.5 216.5q0 282 281 282q143 0 212.5 -68.5t69.5 -213.5q0 -153 -68 -217t-214 -64zM320 141q59 0 84.5 30t25.5 102q0 73 -25.5 103t-84.5 30t-84 -30t-25 -103q0 -72 25 -102t84 -30zM114 625v125h133v-125h-133zM396 625v125h132v-125
h-132z" />
    <glyph glyph-name="divide" unicode="&#xf7;" 
d="M242 500v141h141v-141h-141zM94 297v141h437v-141h-437zM242 94v140h141v-140h-141z" />
    <glyph glyph-name="oslash" unicode="&#xf8;" horiz-adv-x="641" 
d="M39 0v12l55 61q-55 69 -55 200q0 282 281 282q105 0 169 -37l27 29h86v-12l-57 -63q57 -71 57 -199q0 -153 -68 -217t-214 -64q-109 0 -171 35l-24 -27h-86zM211 273q0 -35 6 -62l163 184q-25 11 -60 11q-59 0 -84 -30t-25 -103zM320 141q59 0 84.5 30t25.5 102
q0 37 -6 62l-164 -184q21 -10 60 -10z" />
    <glyph glyph-name="ugrave" unicode="&#xf9;" horiz-adv-x="687" 
d="M234 -8q-77 0 -116.5 45.5t-39.5 126.5v383h172v-336q0 -36 10.5 -53t40.5 -17t105 46l31 20v340h172v-547h-172v82l-23 -16q-42 -28 -61.5 -40t-52 -23t-66.5 -11zM203 767v14h184l97 -140v-16h-109z" />
    <glyph glyph-name="uacute" unicode="&#xfa;" horiz-adv-x="687" 
d="M234 -8q-77 0 -116.5 45.5t-39.5 126.5v383h172v-336q0 -36 10.5 -53t40.5 -17t105 46l31 20v340h172v-547h-172v82l-23 -16q-42 -28 -61.5 -40t-52 -23t-66.5 -11zM484 767l-172 -142h-109v16l98 140h183v-14z" />
    <glyph glyph-name="ucircumflex" unicode="&#xfb;" horiz-adv-x="687" 
d="M234 -8q-77 0 -116.5 45.5t-39.5 126.5v383h172v-336q0 -36 10.5 -53t40.5 -17t105 46l31 20v340h172v-547h-172v82l-23 -16q-42 -28 -61.5 -40t-52 -23t-66.5 -11zM562 625h-109l-105 94h-8l-106 -94h-109v16l141 164h157l139 -164v-16z" />
    <glyph glyph-name="udieresis" unicode="&#xfc;" horiz-adv-x="687" 
d="M234 -8q-77 0 -116.5 45.5t-39.5 126.5v383h172v-336q0 -36 10.5 -53t40.5 -17t105 46l31 20v340h172v-547h-172v82l-23 -16q-42 -28 -61.5 -40t-52 -23t-66.5 -11zM138 625v125h133v-125h-133zM419 625v125h133v-125h-133z" />
    <glyph glyph-name="yacute" unicode="&#xfd;" horiz-adv-x="680" 
d="M141 -188v141h117q93 0 132.5 30t39.5 115v27l-35 -20q-78 -42 -141 -42q-88 0 -136 46t-48 133v305h172v-274q0 -62 63 -62q47 0 101 27l24 12v297h172v-469q0 -124 -77 -195t-205 -71h-179zM492 767l-172 -142h-109v16l98 140h183v-14z" />
    <glyph glyph-name="thorn" unicode="&#xfe;" horiz-adv-x="672" 
d="M78 -188v938h172v-277l39 27q79 55 152 55q85 0 130.5 -47.5t45.5 -132.5v-109q0 -121 -81.5 -193.5t-207.5 -72.5h-78v-188h-172zM281 367l-31 -19v-207h63q132 0 132 125v78q0 62 -62 62q-40 0 -102 -39z" />
    <glyph glyph-name="ydieresis" unicode="&#xff;" horiz-adv-x="680" 
d="M141 -188v141h117q93 0 132.5 30t39.5 115v27l-35 -20q-78 -42 -141 -42q-88 0 -136 46t-48 133v305h172v-274q0 -62 63 -62q47 0 101 27l24 12v297h172v-469q0 -124 -77 -195t-205 -71h-179zM134 625v125h133v-125h-133zM415 625v125h133v-125h-133z" />
    <glyph glyph-name="Amacron" unicode="&#x100;" horiz-adv-x="750" 
d="M31 0v8q27 112 86 312q34 117 83 250.5t73 179.5h211q24 -45 73 -178.5t84 -251.5q59 -200 86 -312v-8h-188q-20 92 -38 164h-259q-29 -117 -39 -164h-172zM375 613q-30 -70 -93 -300h182q-58 231 -89 300zM541 828h-324v106h324v-106z" />
    <glyph glyph-name="amacron" unicode="&#x101;" horiz-adv-x="672" 
d="M230 -8q-84 0 -129.5 47.5t-45.5 132.5v109q0 121 81.5 193.5t207.5 72.5h250v-547h-172v74l-39 -27q-81 -55 -153 -55zM391 180l31 19v207h-63q-132 0 -132 -125v-78q0 -62 62 -62q40 0 102 39zM510 625h-324v105h324v-105z" />
    <glyph glyph-name="Abreve" unicode="&#x102;" horiz-adv-x="750" 
d="M31 0v8q27 112 86 312q34 117 83 250.5t73 179.5h211q24 -45 73 -178.5t84 -251.5q59 -200 86 -312v-8h-188q-20 92 -38 164h-259q-29 -117 -39 -164h-172zM375 613q-30 -70 -93 -300h182q-58 231 -89 300zM559 1008q0 -70 -49 -125t-135 -55t-135 55t-49 125h76
q0 -40 30 -63t78 -23t78.5 23t30.5 63h75z" />
    <glyph glyph-name="abreve" unicode="&#x103;" horiz-adv-x="672" 
d="M230 -8q-84 0 -129.5 47.5t-45.5 132.5v109q0 121 81.5 193.5t207.5 72.5h250v-547h-172v74l-39 -27q-81 -55 -153 -55zM391 180l31 19v207h-63q-132 0 -132 -125v-78q0 -62 62 -62q40 0 102 39zM531 805q0 -70 -48.5 -125t-134.5 -55t-135 55t-49 125h75q0 -40 30.5 -63
t78.5 -23t78.5 23t30.5 63h74z" />
    <glyph glyph-name="Aogonek" unicode="&#x104;" horiz-adv-x="750" 
d="M31 0v8q27 112 86 312q34 117 83 250.5t73 179.5h211q24 -45 73 -178.5t84 -251.5q59 -200 86 -312v-8h-188q-20 92 -38 164h-259q-29 -117 -39 -164h-172zM375 613q-30 -70 -93 -300h182q-58 231 -89 300zM773 -188h-128q-48 0 -79 20.5t-31 62.5q0 23 18 46.5t45 35.5
h78v-12l-19 -9.5t-15 -9.5t-13.5 -14.5t-3.5 -17.5q0 -31 55 -31h93v-71z" />
    <glyph glyph-name="aogonek" unicode="&#x105;" horiz-adv-x="672" 
d="M230 -8q-84 0 -129.5 47.5t-45.5 132.5v109q0 121 81.5 193.5t207.5 72.5h250v-547h-172v74l-39 -27q-81 -55 -153 -55zM391 180l31 19v207h-63q-132 0 -132 -125v-78q0 -62 62 -62q40 0 102 39zM648 -188h-128q-48 0 -79 20.5t-31 62.5q0 23 18 46.5t45 35.5h78v-12
l-19 -9.5t-15 -9.5t-13.5 -14.5t-3.5 -17.5q0 -31 55 -31h93v-71z" />
    <glyph glyph-name="Cacute" unicode="&#x106;" horiz-adv-x="672" 
d="M398 -8q-168 0 -263.5 89.5t-95.5 254.5v78q0 161 103.5 252.5t271.5 91.5q128 0 211 -31v-219h-156v94q-28 7 -71 7q-87 0 -133 -49t-46 -138v-86q0 -87 48 -141t131 -54h47q39 0 91.5 10.5t80.5 20.5h8v-145q-21 -10 -79 -22.5t-101 -12.5h-47zM547 970l-172 -142h-109
v16l97 140h184v-14z" />
    <glyph glyph-name="cacute" unicode="&#x107;" horiz-adv-x="555" 
d="M316 -8q-61 0 -109.5 11.5t-87 35.5t-59.5 65.5t-21 98.5v117q0 106 77 170.5t189 64.5q109 0 187 -39v-188h-140v70q-16 8 -47 8q-44 0 -69 -24.5t-25 -68.5v-71q0 -101 109 -101q86 0 164 27h8v-141q-29 -14 -81.5 -24.5t-94.5 -10.5zM449 767l-172 -142h-109v16
l98 140h183v-14z" />
    <glyph glyph-name="Ccircumflex" unicode="&#x108;" horiz-adv-x="672" 
d="M398 -8q-168 0 -263.5 89.5t-95.5 254.5v78q0 161 103.5 252.5t271.5 91.5q128 0 211 -31v-219h-156v94q-28 7 -71 7q-87 0 -133 -49t-46 -138v-86q0 -87 48 -141t131 -54h47q39 0 91.5 10.5t80.5 20.5h8v-145q-21 -10 -79 -22.5t-101 -12.5h-47zM598 828h-110l-105 94
h-8l-105 -94h-110v16l141 164h157l140 -164v-16z" />
    <glyph glyph-name="ccircumflex" unicode="&#x109;" horiz-adv-x="555" 
d="M316 -8q-61 0 -109.5 11.5t-87 35.5t-59.5 65.5t-21 98.5v117q0 106 77 170.5t189 64.5q109 0 187 -39v-188h-140v70q-16 8 -47 8q-44 0 -69 -24.5t-25 -68.5v-71q0 -101 109 -101q86 0 164 27h8v-141q-29 -14 -81.5 -24.5t-94.5 -10.5zM508 625h-110l-105 94h-8
l-105 -94h-110v16l141 164h157l140 -164v-16z" />
    <glyph glyph-name="Cdotaccent" unicode="&#x10a;" horiz-adv-x="672" 
d="M398 -8q-168 0 -263.5 89.5t-95.5 254.5v78q0 161 103.5 252.5t271.5 91.5q128 0 211 -31v-219h-156v94q-28 7 -71 7q-87 0 -133 -49t-46 -138v-86q0 -87 48 -141t131 -54h47q39 0 91.5 10.5t80.5 20.5h8v-145q-21 -10 -79 -22.5t-101 -12.5h-47zM305 820v125h172v-125
h-172z" />
    <glyph glyph-name="cdotaccent" unicode="&#x10b;" horiz-adv-x="555" 
d="M316 -8q-61 0 -109.5 11.5t-87 35.5t-59.5 65.5t-21 98.5v117q0 106 77 170.5t189 64.5q109 0 187 -39v-188h-140v70q-16 8 -47 8q-44 0 -69 -24.5t-25 -68.5v-71q0 -101 109 -101q86 0 164 27h8v-141q-29 -14 -81.5 -24.5t-94.5 -10.5zM207 617v125h172v-125h-172z" />
    <glyph glyph-name="Ccaron" unicode="&#x10c;" horiz-adv-x="672" 
d="M398 -8q-168 0 -263.5 89.5t-95.5 254.5v78q0 161 103.5 252.5t271.5 91.5q128 0 211 -31v-219h-156v94q-28 7 -71 7q-87 0 -133 -49t-46 -138v-86q0 -87 48 -141t131 -54h47q39 0 91.5 10.5t80.5 20.5h8v-145q-21 -10 -79 -22.5t-101 -12.5h-47zM164 1008h109l106 -94h8
l105 94h110v-16l-140 -164h-157l-141 164v16z" />
    <glyph glyph-name="ccaron" unicode="&#x10d;" horiz-adv-x="555" 
d="M316 -8q-61 0 -109.5 11.5t-87 35.5t-59.5 65.5t-21 98.5v117q0 106 77 170.5t189 64.5q109 0 187 -39v-188h-140v70q-16 8 -47 8q-44 0 -69 -24.5t-25 -68.5v-71q0 -101 109 -101q86 0 164 27h8v-141q-29 -14 -81.5 -24.5t-94.5 -10.5zM66 805h110l105 -94h8l106 94h109
v-16l-140 -164h-157l-141 164v16z" />
    <glyph glyph-name="Dcaron" unicode="&#x10e;" horiz-adv-x="758" 
d="M78 0v750h281q176 0 268 -87t92 -233v-94q0 -154 -90 -245t-270 -91h-281zM250 148h109q87 0 133.5 54.5t46.5 149.5v62q0 89 -46.5 138.5t-133.5 49.5h-109v-454zM141 1008h109l105 -94h8l106 94h109v-16l-140 -164h-157l-140 164v16z" />
    <glyph glyph-name="dcaron" unicode="&#x10f;" horiz-adv-x="672" 
d="M230 -8q-84 0 -129.5 47.5t-45.5 132.5v109q0 121 81.5 193.5t207.5 72.5h78v203h172v-750h-172v74l-39 -27q-81 -55 -153 -55zM391 180l31 19v207h-63q-132 0 -132 -125v-78q0 -62 62 -62q40 0 102 39zM629 594l43 156h121v-55l-74 -101h-90z" />
    <glyph glyph-name="Dcroat" unicode="&#x110;" horiz-adv-x="758" 
d="M78 0v328h-51v110h51v312h281q176 0 268 -87t92 -233v-94q0 -154 -90 -245t-270 -91h-281zM250 148h109q87 0 133.5 54.5t46.5 149.5v62q0 89 -46.5 138.5t-133.5 49.5h-109v-164h103v-110h-103v-180z" />
    <glyph glyph-name="dcroat" unicode="&#x111;" horiz-adv-x="672" 
d="M652 613h-58v-613h-172v74l-39 -27q-81 -55 -153 -55q-84 0 -129.5 47.5t-45.5 132.5v109q0 121 81.5 193.5t207.5 72.5h78v66h-121v86h121v51h172v-51h58v-86zM391 180l31 19v207h-63q-132 0 -132 -125v-78q0 -62 62 -62q40 0 102 39z" />
    <glyph glyph-name="Emacron" unicode="&#x112;" horiz-adv-x="641" 
d="M266 0q-92 0 -140 53.5t-48 149.5v547h485v-148h-313v-149h281v-148h-281v-71q0 -48 16.5 -67t61.5 -19h250v-148h-312zM482 828h-324v106h324v-106z" />
    <glyph glyph-name="emacron" unicode="&#x113;" horiz-adv-x="617" 
d="M312 -8q-128 0 -200.5 54t-72.5 169v105q0 113 77.5 174t199.5 61q246 0 246 -180q0 -160 -203 -160h-148v-4q0 -70 117 -70q95 0 180 23h8v-141q-85 -31 -204 -31zM211 324v-8h137q58 0 58 47q0 32 -23 41.5t-67 9.5q-52 0 -78.5 -21t-26.5 -69zM475 625h-325v105h325
v-105z" />
    <glyph glyph-name="Ebreve" unicode="&#x114;" horiz-adv-x="641" 
d="M266 0q-92 0 -140 53.5t-48 149.5v547h485v-148h-313v-149h281v-148h-281v-71q0 -48 16.5 -67t61.5 -19h250v-148h-312zM508 1008q0 -70 -49 -125t-135 -55t-134.5 55t-48.5 125h75q0 -40 30 -63t78 -23q49 0 79.5 23t30.5 63h74z" />
    <glyph glyph-name="ebreve" unicode="&#x115;" horiz-adv-x="617" 
d="M312 -8q-128 0 -200.5 54t-72.5 169v105q0 113 77.5 174t199.5 61q246 0 246 -180q0 -160 -203 -160h-148v-4q0 -70 117 -70q95 0 180 23h8v-141q-85 -31 -204 -31zM211 324v-8h137q58 0 58 47q0 32 -23 41.5t-67 9.5q-52 0 -78.5 -21t-26.5 -69zM496 805q0 -70 -49 -125
t-135 -55t-134.5 55t-48.5 125h75q0 -40 30 -63t78 -23q49 0 79.5 23t30.5 63h74z" />
    <glyph glyph-name="Edotaccent" unicode="&#x116;" horiz-adv-x="641" 
d="M266 0q-92 0 -140 53.5t-48 149.5v547h485v-148h-313v-149h281v-148h-281v-71q0 -48 16.5 -67t61.5 -19h250v-148h-312zM238 820v125h172v-125h-172z" />
    <glyph glyph-name="edotaccent" unicode="&#x117;" horiz-adv-x="617" 
d="M312 -8q-128 0 -200.5 54t-72.5 169v105q0 113 77.5 174t199.5 61q246 0 246 -180q0 -160 -203 -160h-148v-4q0 -70 117 -70q95 0 180 23h8v-141q-85 -31 -204 -31zM211 324v-8h137q58 0 58 47q0 32 -23 41.5t-67 9.5q-52 0 -78.5 -21t-26.5 -69zM227 617v125h171v-125
h-171z" />
    <glyph glyph-name="Eogonek" unicode="&#x118;" horiz-adv-x="641" 
d="M266 0q-92 0 -140 53.5t-48 149.5v547h485v-148h-313v-149h281v-148h-281v-71q0 -48 16.5 -67t61.5 -19h250v-148h-312zM578 -188h-129q-47 0 -78 20.5t-31 62.5q0 23 18 46.5t44 35.5h78v-12q-38 -20 -46 -34q-4 -8 -4 -17q0 -31 54 -31h94v-71z" />
    <glyph glyph-name="eogonek" unicode="&#x119;" horiz-adv-x="617" 
d="M312 -8q-128 0 -200.5 54t-72.5 169v105q0 113 77.5 174t199.5 61q246 0 246 -180q0 -160 -203 -160h-148v-4q0 -70 117 -70q95 0 180 23h8v-141q-85 -31 -204 -31zM211 324v-8h137q58 0 58 47q0 32 -23 41.5t-67 9.5q-52 0 -78.5 -21t-26.5 -69zM441 -188h-129
q-47 0 -78 20.5t-31 62.5q0 23 18 46.5t45 35.5h78v-12l-19 -9.5t-15 -9.5t-13.5 -14.5t-3.5 -17.5q0 -31 55 -31h93v-71z" />
    <glyph glyph-name="Ecaron" unicode="&#x11a;" horiz-adv-x="641" 
d="M266 0q-92 0 -140 53.5t-48 149.5v547h485v-148h-313v-149h281v-148h-281v-71q0 -48 16.5 -67t61.5 -19h250v-148h-312zM102 1008h109l105 -94h8l106 94h109v-16l-140 -164h-157l-140 164v16z" />
    <glyph glyph-name="ecaron" unicode="&#x11b;" horiz-adv-x="617" 
d="M312 -8q-128 0 -200.5 54t-72.5 169v105q0 113 77.5 174t199.5 61q246 0 246 -180q0 -160 -203 -160h-148v-4q0 -70 117 -70q95 0 180 23h8v-141q-85 -31 -204 -31zM211 324v-8h137q58 0 58 47q0 32 -23 41.5t-67 9.5q-52 0 -78.5 -21t-26.5 -69zM90 805h109l106 -94h7
l106 94h109v-16l-139 -164h-158l-140 164v16z" />
    <glyph glyph-name="Gcircumflex" unicode="&#x11c;" horiz-adv-x="742" 
d="M406 -8q-169 0 -268 89.5t-99 254.5v78q0 87 32 154t87.5 108t126 61.5t153.5 20.5q127 0 234 -39v-149h-8q-103 39 -234 39q-96 0 -153.5 -51.5t-57.5 -143.5v-78q0 -86 51.5 -140.5t135.5 -54.5h39q34 0 71 7v118h-110v148h266v-379q-112 -43 -227 -43h-39zM625 828
h-109l-106 94h-8l-105 -94h-110v16l141 164h157l140 -164v-16z" />
    <glyph glyph-name="gcircumflex" unicode="&#x11d;" horiz-adv-x="672" 
d="M125 -188v141h125q91 0 131.5 28.5t40.5 108.5v4l-39 -20q-74 -35 -115 -41q-15 -2 -30 -2q-88 0 -135.5 46.5t-47.5 133.5v70q0 121 81.5 193.5t207.5 72.5h250v-469q0 -124 -77.5 -195t-204.5 -71h-187zM395 207l27 12v187h-63q-132 0 -132 -125v-39q0 -62 62 -62
q44 0 106 27zM574 625h-109l-106 94h-7l-106 -94h-109v16l140 164h158l139 -164v-16z" />
    <glyph glyph-name="Gbreve" unicode="&#x11e;" horiz-adv-x="742" 
d="M406 -8q-169 0 -268 89.5t-99 254.5v78q0 87 32 154t87.5 108t126 61.5t153.5 20.5q127 0 234 -39v-149h-8q-103 39 -234 39q-96 0 -153.5 -51.5t-57.5 -143.5v-78q0 -86 51.5 -140.5t135.5 -54.5h39q34 0 71 7v118h-110v148h266v-379q-112 -43 -227 -43h-39zM590 1008
q0 -70 -49 -125t-135 -55t-134.5 55t-48.5 125h75q0 -40 30 -63t78 -23q49 0 79.5 23t30.5 63h74z" />
    <glyph glyph-name="gbreve" unicode="&#x11f;" horiz-adv-x="672" 
d="M125 -188v141h125q91 0 131.5 28.5t40.5 108.5v4l-39 -20q-74 -35 -115 -41q-15 -2 -30 -2q-88 0 -135.5 46.5t-47.5 133.5v70q0 121 81.5 193.5t207.5 72.5h250v-469q0 -124 -77.5 -195t-204.5 -71h-187zM395 207l27 12v187h-63q-132 0 -132 -125v-39q0 -62 62 -62
q44 0 106 27zM531 805q0 -70 -48.5 -125t-134.5 -55t-135 55t-49 125h75q0 -40 30.5 -63t78.5 -23t78.5 23t30.5 63h74z" />
    <glyph glyph-name="Gdotaccent" unicode="&#x120;" horiz-adv-x="742" 
d="M406 -8q-169 0 -268 89.5t-99 254.5v78q0 87 32 154t87.5 108t126 61.5t153.5 20.5q127 0 234 -39v-149h-8q-103 39 -234 39q-96 0 -153.5 -51.5t-57.5 -143.5v-78q0 -86 51.5 -140.5t135.5 -54.5h39q34 0 71 7v118h-110v148h266v-379q-112 -43 -227 -43h-39zM320 820
v125h172v-125h-172z" />
    <glyph glyph-name="gdotaccent" unicode="&#x121;" horiz-adv-x="672" 
d="M125 -188v141h125q91 0 131.5 28.5t40.5 108.5v4l-39 -20q-74 -35 -115 -41q-15 -2 -30 -2q-88 0 -135.5 46.5t-47.5 133.5v70q0 121 81.5 193.5t207.5 72.5h250v-469q0 -124 -77.5 -195t-204.5 -71h-187zM395 207l27 12v187h-63q-132 0 -132 -125v-39q0 -62 62 -62
q44 0 106 27zM262 617v125h172v-125h-172z" />
    <glyph glyph-name="Gcommaaccent" unicode="&#x122;" horiz-adv-x="742" 
d="M406 -8q-169 0 -268 89.5t-99 254.5v78q0 87 32 154t87.5 108t126 61.5t153.5 20.5q127 0 234 -39v-149h-8q-103 39 -234 39q-96 0 -153.5 -51.5t-57.5 -143.5v-78q0 -86 51.5 -140.5t135.5 -54.5h39q34 0 71 7v118h-110v148h266v-379q-112 -43 -227 -43h-39zM289 -195
l43 156h121v-55l-74 -101h-90z" />
    <glyph glyph-name="gcommaaccent" unicode="&#x123;" horiz-adv-x="672" 
d="M125 -188v141h125q91 0 131.5 28.5t40.5 108.5v4l-39 -20q-74 -35 -115 -41q-15 -2 -30 -2q-88 0 -135.5 46.5t-47.5 133.5v70q0 121 81.5 193.5t207.5 72.5h250v-469q0 -124 -77.5 -195t-204.5 -71h-187zM395 207l27 12v187h-63q-132 0 -132 -125v-39q0 -62 62 -62
q44 0 106 27zM449 750l-43 -156h-121v54l74 102h90z" />
    <glyph glyph-name="Hcircumflex" unicode="&#x124;" horiz-adv-x="766" 
d="M78 0v750h172v-289h266v289h171v-750h-171v312h-266v-312h-172zM602 828h-110l-105 94h-8l-106 -94h-109v16l141 164h157l140 -164v-16z" />
    <glyph glyph-name="hcircumflex" unicode="&#x125;" horiz-adv-x="687" 
d="M437 0v336q0 36 -10 53t-40 17q-34 0 -106 -47l-31 -19v-340h-172v750h172v-285l23 15q44 29 62.5 40t51.5 23t66 12q78 0 117 -45.5t39 -126.5v-383h-172zM375 809h-109l-106 93h-8l-105 -93h-110v15l141 164h157l140 -164v-15z" />
    <glyph glyph-name="Hbar" unicode="&#x126;" horiz-adv-x="766" 
d="M742 664v-128h-54v-536h-172v313h-266v-313h-172v536h-55v128h55v86h172v-86h266v86h172v-86h54zM250 461h266v75h-266v-75z" />
    <glyph glyph-name="hbar" unicode="&#x127;" horiz-adv-x="687" 
d="M437 0v336q0 36 -10 53t-40 17q-34 0 -106 -47l-31 -19v-340h-172v613h-58v86h58v51h172v-51h121v-86h-121v-148l23 15q44 29 62.5 40t51.5 23t66 12q78 0 117 -45.5t39 -126.5v-383h-172z" />
    <glyph glyph-name="Itilde" unicode="&#x128;" horiz-adv-x="328" 
d="M78 0v750h172v-750h-172zM336 894q-15 -23 -45 -44.5t-61 -21.5q-28 0 -75 32t-65 32q-21 0 -39.5 -11.5t-26.5 -21t-24 -31.5h-8v98q16 22 42 40t56 18q29 0 76 -31t64 -31q50 0 98 62h8v-90z" />
    <glyph glyph-name="itilde" unicode="&#x129;" horiz-adv-x="344" 
d="M94 0v406h-78v141h250v-547h-172zM324 690q-14 -22 -44 -43.5t-61 -21.5q-29 0 -76 31.5t-65 31.5q-21 0 -39.5 -11.5t-25.5 -20l-25 -31.5h-8v98q16 22 42 40t56 18q29 0 76.5 -31t64.5 -31q31 0 53 16.5t44 45.5h8v-91z" />
    <glyph glyph-name="Imacron" unicode="&#x12a;" horiz-adv-x="328" 
d="M78 0v750h172v-750h-172zM326 828h-324v106h324v-106z" />
    <glyph glyph-name="imacron" unicode="&#x12b;" horiz-adv-x="344" 
d="M94 0v406h-78v141h250v-547h-172zM314 625h-324v105h324v-105z" />
    <glyph glyph-name="Ibreve" unicode="&#x12c;" horiz-adv-x="328" 
d="M78 0v750h172v-750h-172zM348 1008q0 -70 -49 -125t-135 -55t-135 55t-49 125h76q0 -40 30 -63t78 -23t78.5 23t30.5 63h75z" />
    <glyph glyph-name="ibreve" unicode="&#x12d;" horiz-adv-x="344" 
d="M94 0v406h-78v141h250v-547h-172zM348 805q0 -70 -49 -125t-135 -55t-135 55t-49 125h76q0 -40 30 -63t78 -23t78.5 23t30.5 63h75z" />
    <glyph glyph-name="Iogonek" unicode="&#x12e;" horiz-adv-x="328" 
d="M78 0v750h172v-750h-172zM301 -188h-129q-48 0 -79 20.5t-31 62.5q0 23 18 46.5t45 35.5h78v-12q-1 -1 -7.5 -4t-8.5 -4t-7.5 -4.5t-7.5 -5t-6 -5t-6 -6t-4 -6.5t-3 -8t-1 -8q0 -31 55 -31h94v-71z" />
    <glyph glyph-name="iogonek" unicode="&#x12f;" horiz-adv-x="344" 
d="M94 609v141h172v-141h-172zM94 0v406h-78v141h250v-547h-172zM314 -188h-128q-48 0 -79 20.5t-31 62.5q0 23 18 46.5t45 35.5h78v-12l-19 -9.5t-15 -9.5t-13.5 -14.5t-3.5 -17.5q0 -31 55 -31h93v-71z" />
    <glyph glyph-name="Idotaccent" unicode="&#x130;" horiz-adv-x="328" 
d="M78 0v750h172v-750h-172zM78 820v125h172v-125h-172z" />
    <glyph glyph-name="dotlessi" unicode="&#x131;" horiz-adv-x="344" 
d="M94 0v406h-78v141h250v-547h-172z" />
    <glyph glyph-name="IJ" unicode="&#x132;" horiz-adv-x="777" 
d="M78 0v750h172v-750h-172zM344 0v148h90q51 0 72 24t21 78v352h-171v148h343v-500q0 -123 -63.5 -186.5t-186.5 -63.5h-105z" />
    <glyph glyph-name="ij" unicode="&#x133;" horiz-adv-x="687" 
d="M94 609v141h172v-141h-172zM94 0v406h-78v141h250v-547h-172zM437 609v141h172v-141h-172zM320 -188v141h24q52 0 72.5 20.5t20.5 73.5v359h-78v141h250v-516q0 -105 -61.5 -162t-156.5 -57h-71z" />
    <glyph glyph-name="Jcircumflex" unicode="&#x134;" horiz-adv-x="484" 
d="M31 0v148h110q51 0 72 24t21 78v352h-171v148h343v-500q0 -123 -63.5 -186.5t-186.5 -63.5h-125zM461 828h-109l-106 94h-8l-105 -94h-110v16l141 164h157l140 -164v-16z" />
    <glyph glyph-name="jcircumflex" unicode="&#x135;" horiz-adv-x="352" 
d="M-16 -188v141h24q52 0 73 20.5t21 73.5v359h-79v141h250v-516q0 -105 -61.5 -162t-156.5 -57h-71zM383 625h-110l-105 94h-8l-105 -94h-110v16l141 164h157l140 -164v-16z" />
    <glyph glyph-name="Kcommaaccent" unicode="&#x136;" horiz-adv-x="750" 
d="M78 0v750h172v-285h43l227 285h196v-8l-286 -344l304 -390v-8h-203l-246 316h-35v-316h-172zM270 -195l42 156h122v-55l-75 -101h-89z" />
    <glyph glyph-name="kcommaaccent" unicode="&#x137;" horiz-adv-x="641" 
d="M78 0v750h172v-391h39l156 188h188v-8l-203 -238l203 -293v-8h-195l-149 219h-39v-219h-172zM234 -195l43 156h121v-55l-74 -101h-90z" />
    <glyph glyph-name="Lacute" unicode="&#x139;" horiz-adv-x="562" 
d="M266 0q-92 0 -140 53.5t-48 149.5v547h172v-516q0 -48 16.5 -67t61.5 -19h203v-148h-265zM395 970l-172 -142h-110v16l98 140h184v-14z" />
    <glyph glyph-name="lacute" unicode="&#x13a;" horiz-adv-x="344" 
d="M94 0v609h-78v141h250v-750h-172zM328 970l-172 -142h-109v16l98 140h183v-14z" />
    <glyph glyph-name="Lcommaaccent" unicode="&#x13b;" horiz-adv-x="562" 
d="M266 0q-92 0 -140 53.5t-48 149.5v547h172v-516q0 -48 16.5 -67t61.5 -19h203v-148h-265zM199 -195l43 156h121v-55l-74 -101h-90z" />
    <glyph glyph-name="lcommaaccent" unicode="&#x13c;" horiz-adv-x="344" 
d="M94 0v609h-78v141h250v-750h-172zM78 -195l43 156h121v-55l-74 -101h-90z" />
    <glyph glyph-name="Lcaron" unicode="&#x13d;" horiz-adv-x="562" 
d="M266 0q-92 0 -140 53.5t-48 149.5v547h172v-516q0 -48 16.5 -67t61.5 -19h203v-148h-265zM316 594l43 156h121v-55l-74 -101h-90z" />
    <glyph glyph-name="lcaron" unicode="&#x13e;" horiz-adv-x="344" 
d="M94 0v609h-78v141h250v-750h-172zM301 594l43 156h121v-55l-74 -101h-90z" />
    <glyph glyph-name="Ldot" unicode="&#x13f;" horiz-adv-x="562" 
d="M266 0q-92 0 -140 53.5t-48 149.5v547h172v-516q0 -48 16.5 -67t61.5 -19h203v-148h-265zM324 373v125h137v-125h-137z" />
    <glyph glyph-name="ldot" unicode="&#x140;" horiz-adv-x="441" 
d="M94 0v609h-78v141h250v-750h-172zM320 373v125h137v-125h-137z" />
    <glyph glyph-name="Lslash" unicode="&#x141;" horiz-adv-x="562" 
d="M402 434l-152 -84v-116q0 -48 16.5 -67t61.5 -19h203v-148h-265q-92 0 -140 53.5t-48 149.5v51l-51 -27h-7v117l58 32v374h172v-279l145 80h7v-117z" />
    <glyph glyph-name="lslash" unicode="&#x142;" horiz-adv-x="344" 
d="M344 449l-78 -56v-393h-172v270l-71 -51h-7v101l78 56v233h-78v141h250v-250l70 51h8v-102z" />
    <glyph glyph-name="Nacute" unicode="&#x143;" horiz-adv-x="766" 
d="M78 0v750h156l282 -445v445h172v-750h-157l-281 445v-445h-172zM523 970l-171 -142h-110v16l98 140h183v-14z" />
    <glyph glyph-name="nacute" unicode="&#x144;" horiz-adv-x="687" 
d="M78 0v547h172v-83l23 16q55 40 93.5 57.5t86.5 17.5q78 0 117 -45.5t39 -126.5v-383h-172v336q0 36 -10 53t-40 17q-34 0 -106 -47l-31 -19v-340h-172zM484 767l-172 -142h-109v16l98 140h183v-14z" />
    <glyph glyph-name="Ncommaaccent" unicode="&#x145;" horiz-adv-x="766" 
d="M78 0v750h156l282 -445v445h172v-750h-157l-281 445v-445h-172zM277 -195l43 156h121v-55l-74 -101h-90z" />
    <glyph glyph-name="ncommaaccent" unicode="&#x146;" horiz-adv-x="687" 
d="M78 0v547h172v-83l23 16q55 40 93.5 57.5t86.5 17.5q78 0 117 -45.5t39 -126.5v-383h-172v336q0 36 -10 53t-40 17q-34 0 -106 -47l-31 -19v-340h-172zM238 -195l43 156h121v-55l-74 -101h-90z" />
    <glyph glyph-name="Ncaron" unicode="&#x147;" horiz-adv-x="766" 
d="M78 0v750h156l282 -445v445h172v-750h-157l-281 445v-445h-172zM164 1008h109l106 -94h8l105 94h110v-16l-140 -164h-157l-141 164v16z" />
    <glyph glyph-name="ncaron" unicode="&#x148;" horiz-adv-x="687" 
d="M78 0v547h172v-83l23 16q55 40 93.5 57.5t86.5 17.5q78 0 117 -45.5t39 -126.5v-383h-172v336q0 36 -10 53t-40 17q-34 0 -106 -47l-31 -19v-340h-172zM125 805h109l106 -94h8l105 94h109v-16l-139 -164h-157l-141 164v16z" />
    <glyph glyph-name="napostrophe" unicode="&#x149;" horiz-adv-x="687" 
d="M78 0v547h172v-83l23 16q55 40 93.5 57.5t86.5 17.5q78 0 117 -45.5t39 -126.5v-383h-172v336q0 36 -10 53t-40 17q-34 0 -106 -47l-31 -19v-340h-172zM-4 594l43 156h121v-55l-74 -101h-90z" />
    <glyph glyph-name="Eng" unicode="&#x14a;" horiz-adv-x="766" 
d="M312 -219v149h110q50 0 71 22t23 72l-266 421v-445h-172v750h156l282 -445v445h171v-719q0 -123 -63 -186.5t-187 -63.5h-125z" />
    <glyph glyph-name="eng" unicode="&#x14b;" horiz-adv-x="687" 
d="M320 -188v141h24q52 0 72.5 20.5t20.5 73.5v289q0 36 -10 53t-40 17q-34 0 -106 -47l-31 -19v-340h-172v547h172v-83l23 16q55 40 93.5 57.5t86.5 17.5q78 0 117 -45.5t39 -126.5v-352q0 -105 -61.5 -162t-156.5 -57h-71z" />
    <glyph glyph-name="Omacron" unicode="&#x14c;" horiz-adv-x="766" 
d="M383 -8q-170 0 -257 97.5t-87 273.5v32q0 175 86.5 269t257.5 94q170 0 257 -94t87 -269v-32q0 -176 -87.5 -273.5t-256.5 -97.5zM383 141q91 0 127.5 58t36.5 164v32q0 104 -36.5 159t-127.5 55t-127.5 -55t-36.5 -159v-32q0 -106 36.5 -164t127.5 -58zM545 828h-324
v106h324v-106z" />
    <glyph glyph-name="omacron" unicode="&#x14d;" horiz-adv-x="641" 
d="M320 -8q-140 0 -210.5 64.5t-70.5 216.5q0 282 281 282q143 0 212.5 -68.5t69.5 -213.5q0 -153 -68 -217t-214 -64zM320 141q59 0 84.5 30t25.5 102q0 73 -25.5 103t-84.5 30t-84 -30t-25 -103q0 -72 25 -102t84 -30zM482 625h-324v105h324v-105z" />
    <glyph glyph-name="Obreve" unicode="&#x14e;" horiz-adv-x="766" 
d="M383 -8q-170 0 -257 97.5t-87 273.5v32q0 175 86.5 269t257.5 94q170 0 257 -94t87 -269v-32q0 -176 -87.5 -273.5t-256.5 -97.5zM383 141q91 0 127.5 58t36.5 164v32q0 104 -36.5 159t-127.5 55t-127.5 -55t-36.5 -159v-32q0 -106 36.5 -164t127.5 -58zM566 1008
q0 -70 -48.5 -125t-134.5 -55t-135 55t-49 125h75q0 -40 30.5 -63t78.5 -23t78.5 23t30.5 63h74z" />
    <glyph glyph-name="obreve" unicode="&#x14f;" horiz-adv-x="641" 
d="M320 -8q-140 0 -210.5 64.5t-70.5 216.5q0 282 281 282q143 0 212.5 -68.5t69.5 -213.5q0 -153 -68 -217t-214 -64zM320 141q59 0 84.5 30t25.5 102q0 73 -25.5 103t-84.5 30t-84 -30t-25 -103q0 -72 25 -102t84 -30zM504 805q0 -70 -49 -125t-135 -55t-134.5 55
t-48.5 125h75q0 -40 30 -63t78 -23q49 0 79.5 23t30.5 63h74z" />
    <glyph glyph-name="Ohungarumlaut" unicode="&#x150;" horiz-adv-x="766" 
d="M383 -8q-170 0 -257 97.5t-87 273.5v32q0 175 86.5 269t257.5 94q170 0 257 -94t87 -269v-32q0 -176 -87.5 -273.5t-256.5 -97.5zM383 141q91 0 127.5 58t36.5 164v32q0 104 -36.5 159t-127.5 55t-127.5 -55t-36.5 -159v-32q0 -106 36.5 -164t127.5 -58zM660 969
l-183 -141h-90v16l121 140h152v-15zM422 969l-183 -141h-94v16l125 140h152v-15z" />
    <glyph glyph-name="ohungarumlaut" unicode="&#x151;" horiz-adv-x="641" 
d="M320 -8q-140 0 -210.5 64.5t-70.5 216.5q0 282 281 282q143 0 212.5 -68.5t69.5 -213.5q0 -153 -68 -217t-214 -64zM320 141q59 0 84.5 30t25.5 102q0 73 -25.5 103t-84.5 30t-84 -30t-25 -103q0 -72 25 -102t84 -30zM598 766l-184 -141h-90v16l121 140h153v-15zM359 766
l-182 -141h-95v16l125 140h152v-15z" />
    <glyph glyph-name="OE" unicode="&#x152;" horiz-adv-x="1023" 
d="M383 0q-170 0 -257 97.5t-87 273.5v16q0 175 86.5 269t257.5 94h562v-148h-312v-149h281v-148h-281v-157h328v-148h-578zM219 371q0 -106 36.5 -164.5t127.5 -58.5h78v454h-78q-91 0 -127.5 -55t-36.5 -160v-16z" />
    <glyph glyph-name="oe" unicode="&#x153;" horiz-adv-x="1008" 
d="M320 -8q-140 0 -210.5 64.5t-70.5 216.5q0 282 281 282q127 0 196 -54q74 54 191 54q246 0 246 -180q0 -160 -203 -160h-148v-4q0 -70 117 -70q96 0 179 23h8v-141q-84 -31 -203 -31q-121 0 -190 46q-66 -46 -193 -46zM320 141q57 0 83.5 27t26.5 91v28q0 64 -26.5 91.5
t-83.5 27.5q-59 0 -84 -30t-25 -103q0 -72 25 -102t84 -30zM602 324v-8h136q59 0 59 47q0 32 -23 41.5t-67 9.5q-52 0 -78.5 -21t-26.5 -69z" />
    <glyph glyph-name="Racute" unicode="&#x154;" horiz-adv-x="687" 
d="M78 0v750h274q138 0 209.5 -55.5t71.5 -194.5q0 -143 -121 -219q54 -43 108 -137t60 -136v-8h-188q-13 46 -54 121.5t-83 101.5h-105v-223h-172zM250 367h70q72 0 102.5 28t30.5 97q0 67 -29 88.5t-104 21.5h-70v-235zM484 970l-172 -142h-109v16l98 140h183v-14z" />
    <glyph glyph-name="racute" unicode="&#x155;" horiz-adv-x="438" 
d="M78 0v547h172v-67q23 35 63 55t82 20h43v-149h-59q-82 0 -129 -54v-352h-172zM395 767l-172 -142h-110v16l98 140h184v-14z" />
    <glyph glyph-name="Rcommaaccent" unicode="&#x156;" horiz-adv-x="687" 
d="M78 0v750h274q138 0 209.5 -55.5t71.5 -194.5q0 -143 -121 -219q54 -43 108 -137t60 -136v-8h-188q-13 46 -54 121.5t-83 101.5h-105v-223h-172zM250 367h70q72 0 102.5 28t30.5 97q0 67 -29 88.5t-104 21.5h-70v-235zM258 -195l43 156h121v-55l-74 -101h-90z" />
    <glyph glyph-name="rcommaaccent" unicode="&#x157;" horiz-adv-x="438" 
d="M78 0v547h172v-67q23 35 63 55t82 20h43v-149h-59q-82 0 -129 -54v-352h-172zM55 -195l43 156h121v-55l-74 -101h-90z" />
    <glyph glyph-name="Rcaron" unicode="&#x158;" horiz-adv-x="687" 
d="M78 0v750h274q138 0 209.5 -55.5t71.5 -194.5q0 -143 -121 -219q54 -43 108 -137t60 -136v-8h-188q-13 46 -54 121.5t-83 101.5h-105v-223h-172zM250 367h70q72 0 102.5 28t30.5 97q0 67 -29 88.5t-104 21.5h-70v-235zM113 1008h110l105 -94h8l105 94h110v-16l-140 -164
h-157l-141 164v16z" />
    <glyph glyph-name="rcaron" unicode="&#x159;" horiz-adv-x="438" 
d="M78 0v547h172v-67q23 35 63 55t82 20h43v-149h-59q-82 0 -129 -54v-352h-172zM35 805h110l105 -94h8l105 94h110v-16l-140 -164h-157l-141 164v16z" />
    <glyph glyph-name="Sacute" unicode="&#x15a;" horiz-adv-x="641" 
d="M266 -8q-45 0 -108 10.5t-103 24.5v145h8q103 -31 203 -31h39q109 0 109 82q0 55 -86 78l-117 31q-156 40 -156 211q0 108 77.5 161.5t199.5 53.5h39q38 0 95.5 -8.5t88.5 -19.5v-144h-8q-29 8 -86 15.5t-90 7.5h-35q-102 0 -102 -66q0 -52 71 -70l117 -32
q86 -23 129 -76t43 -142q0 -120 -77.5 -175.5t-211.5 -55.5h-39zM496 970l-172 -142h-109v16l97 140h184v-14z" />
    <glyph glyph-name="sacute" unicode="&#x15b;" horiz-adv-x="539" 
d="M223 -8q-99 0 -184 20v144h8q100 -19 176 -19q97 0 97 31q0 16 -10 23t-33 12l-86 20q-152 34 -152 156q0 89 75.5 132.5t198.5 43.5q78 0 156 -16v-144h-8q-101 15 -152 15q-90 0 -90 -27q0 -11 9.5 -18.5t17.5 -10t27 -6.5l75 -16q152 -32 152 -160q0 -180 -277 -180z
M457 767l-172 -142h-109v16l97 140h184v-14z" />
    <glyph glyph-name="Scircumflex" unicode="&#x15c;" horiz-adv-x="641" 
d="M266 -8q-45 0 -108 10.5t-103 24.5v145h8q103 -31 203 -31h39q109 0 109 82q0 55 -86 78l-117 31q-156 40 -156 211q0 108 77.5 161.5t199.5 53.5h39q38 0 95.5 -8.5t88.5 -19.5v-144h-8q-29 8 -86 15.5t-90 7.5h-35q-102 0 -102 -66q0 -52 71 -70l117 -32
q86 -23 129 -76t43 -142q0 -120 -77.5 -175.5t-211.5 -55.5h-39zM547 828h-110l-105 94h-8l-105 -94h-110v16l141 164h157l140 -164v-16z" />
    <glyph glyph-name="scircumflex" unicode="&#x15d;" horiz-adv-x="539" 
d="M223 -8q-99 0 -184 20v144h8q100 -19 176 -19q97 0 97 31q0 16 -10 23t-33 12l-86 20q-152 34 -152 156q0 89 75.5 132.5t198.5 43.5q78 0 156 -16v-144h-8q-101 15 -152 15q-90 0 -90 -27q0 -11 9.5 -18.5t17.5 -10t27 -6.5l75 -16q152 -32 152 -160q0 -180 -277 -180z
M496 625h-109l-106 94h-8l-105 -94h-109v16l140 164h157l140 -164v-16z" />
    <glyph glyph-name="Scedilla" unicode="&#x15e;" horiz-adv-x="641" 
d="M266 -8q-45 0 -108 10.5t-103 24.5v145h8q103 -31 203 -31h39q109 0 109 82q0 55 -86 78l-117 31q-156 40 -156 211q0 108 77.5 161.5t199.5 53.5h39q38 0 95.5 -8.5t88.5 -19.5v-144h-8q-29 8 -86 15.5t-90 7.5h-35q-102 0 -102 -66q0 -52 71 -70l117 -32
q86 -23 129 -76t43 -142q0 -120 -77.5 -175.5t-211.5 -55.5h-39zM146 -188v71h94q55 0 55 31q0 13 -9 23.5t-16.5 14.5l-25.5 13v12h78q27 -12 45 -35.5t18 -46.5q0 -42 -31 -62.5t-79 -20.5h-129z" />
    <glyph glyph-name="scedilla" unicode="&#x15f;" horiz-adv-x="539" 
d="M223 -8q-99 0 -184 20v144h8q100 -19 176 -19q97 0 97 31q0 16 -10 23t-33 12l-86 20q-152 34 -152 156q0 89 75.5 132.5t198.5 43.5q78 0 156 -16v-144h-8q-101 15 -152 15q-90 0 -90 -27q0 -11 9.5 -18.5t17.5 -10t27 -6.5l75 -16q152 -32 152 -160q0 -180 -277 -180z
M92 -188v71h94q54 0 54 31q0 13 -9 23.5t-16.5 14.5l-25.5 13v12h79q26 -12 44 -35.5t18 -46.5q0 -42 -31 -62.5t-78 -20.5h-129z" />
    <glyph glyph-name="Scaron" unicode="&#x160;" horiz-adv-x="641" 
d="M266 -8q-45 0 -108 10.5t-103 24.5v145h8q103 -31 203 -31h39q109 0 109 82q0 55 -86 78l-117 31q-156 40 -156 211q0 108 77.5 161.5t199.5 53.5h39q38 0 95.5 -8.5t88.5 -19.5v-144h-8q-29 8 -86 15.5t-90 7.5h-35q-102 0 -102 -66q0 -52 71 -70l117 -32
q86 -23 129 -76t43 -142q0 -120 -77.5 -175.5t-211.5 -55.5h-39zM109 1008h110l105 -94h8l105 94h110v-16l-140 -164h-157l-141 164v16z" />
    <glyph glyph-name="scaron" unicode="&#x161;" horiz-adv-x="539" 
d="M223 -8q-99 0 -184 20v144h8q100 -19 176 -19q97 0 97 31q0 16 -10 23t-33 12l-86 20q-152 34 -152 156q0 89 75.5 132.5t198.5 43.5q78 0 156 -16v-144h-8q-101 15 -152 15q-90 0 -90 -27q0 -11 9.5 -18.5t17.5 -10t27 -6.5l75 -16q152 -32 152 -160q0 -180 -277 -180z
M62 805h110l105 -94h8l106 94h109v-16l-140 -164h-157l-141 164v16z" />
    <glyph glyph-name="Tcommaaccent" unicode="&#x162;" horiz-adv-x="609" 
d="M219 0v602h-203v148h578v-148h-203v-602h-172zM162 -188v71h94q55 0 55 31q0 4 -1 8t-3 8t-4 6.5t-6 6t-6 5t-7.5 5t-7.5 4.5t-8.5 4t-7.5 4v12h78q26 -12 44 -35.5t18 -46.5q0 -42 -30.5 -62.5t-78.5 -20.5h-129z" />
    <glyph glyph-name="tcommaaccent" unicode="&#x163;" horiz-adv-x="422" 
d="M422 0h-102q-107 0 -166.5 53.5t-59.5 157.5v195h-86v141h86v141h172v-141h140v-141h-140v-156q0 -60 22 -84.5t79 -24.5h55v-141zM158 -188v71h94q55 0 55 31q0 4 -1 8t-3 8t-4 6.5t-6 6t-6 5t-7.5 5t-7.5 4.5t-8.5 4t-7.5 4v12h78q26 -12 44 -35.5t18 -46.5
q0 -42 -30.5 -62.5t-78.5 -20.5h-129z" />
    <glyph glyph-name="Tcaron" unicode="&#x164;" horiz-adv-x="609" 
d="M219 0v602h-203v148h578v-148h-203v-602h-172zM86 1008h109l106 -94h8l105 94h109v-16l-139 -164h-157l-141 164v16z" />
    <glyph glyph-name="tcaron" unicode="&#x165;" horiz-adv-x="422" 
d="M422 0h-102q-107 0 -166.5 53.5t-59.5 157.5v195h-86v141h86v141h172v-141h140v-141h-140v-156q0 -60 22 -84.5t79 -24.5h55v-141zM305 594l43 156h121v-55l-74 -101h-90z" />
    <glyph glyph-name="Tbar" unicode="&#x166;" horiz-adv-x="609" 
d="M535 305h-144v-305h-172v305h-145v148h145v149h-203v148h578v-148h-203v-149h144v-148z" />
    <glyph glyph-name="tbar" unicode="&#x167;" horiz-adv-x="422" 
d="M8 352h86v54h-86v141h86v141h172v-141h140v-141h-140v-54h140v-122h-140q3 -48 25.5 -68.5t75.5 -20.5h55v-141h-102q-107 0 -166.5 53.5t-59.5 157.5v19h-86v122z" />
    <glyph glyph-name="Utilde" unicode="&#x168;" horiz-adv-x="766" 
d="M383 -8q-144 0 -224.5 71t-80.5 210v477h172v-480q0 -66 32 -97.5t101 -31.5t101 31.5t32 97.5v480h171v-477q0 -138 -84 -209.5t-220 -71.5zM555 894q-15 -23 -45 -44.5t-61 -21.5q-28 0 -75 32t-65 32q-21 0 -39.5 -11.5t-26.5 -21t-24 -31.5h-8v98q16 22 42 40t56 18
q28 0 75.5 -31t64.5 -31q21 0 41 10.5t31 21.5t26 30h8v-90z" />
    <glyph glyph-name="utilde" unicode="&#x169;" horiz-adv-x="687" 
d="M234 -8q-77 0 -116.5 45.5t-39.5 126.5v383h172v-336q0 -36 10.5 -53t40.5 -17t105 46l31 20v340h172v-547h-172v82l-23 -16q-42 -28 -61.5 -40t-52 -23t-66.5 -11zM516 690q-16 -23 -45.5 -44t-60.5 -21q-29 0 -75.5 31.5t-64.5 31.5q-21 0 -39.5 -11t-26.5 -21l-24 -31
h-8v98q14 21 41 39.5t57 18.5q28 0 75.5 -31t64.5 -31q21 0 41 10.5t31 21.5t26 30h8v-91z" />
    <glyph glyph-name="Umacron" unicode="&#x16a;" horiz-adv-x="766" 
d="M383 -8q-144 0 -224.5 71t-80.5 210v477h172v-480q0 -66 32 -97.5t101 -31.5t101 31.5t32 97.5v480h171v-477q0 -138 -84 -209.5t-220 -71.5zM545 828h-324v106h324v-106z" />
    <glyph glyph-name="umacron" unicode="&#x16b;" horiz-adv-x="687" 
d="M234 -8q-77 0 -116.5 45.5t-39.5 126.5v383h172v-336q0 -36 10.5 -53t40.5 -17t105 46l31 20v340h172v-547h-172v82l-23 -16q-42 -28 -61.5 -40t-52 -23t-66.5 -11zM506 625h-324v105h324v-105z" />
    <glyph glyph-name="Ubreve" unicode="&#x16c;" horiz-adv-x="766" 
d="M383 -8q-144 0 -224.5 71t-80.5 210v477h172v-480q0 -66 32 -97.5t101 -31.5t101 31.5t32 97.5v480h171v-477q0 -138 -84 -209.5t-220 -71.5zM566 1008q0 -70 -48.5 -125t-134.5 -55t-135 55t-49 125h75q0 -40 30.5 -63t78.5 -23t78.5 23t30.5 63h74z" />
    <glyph glyph-name="ubreve" unicode="&#x16d;" horiz-adv-x="687" 
d="M234 -8q-77 0 -116.5 45.5t-39.5 126.5v383h172v-336q0 -36 10.5 -53t40.5 -17t105 46l31 20v340h172v-547h-172v82l-23 -16q-42 -28 -61.5 -40t-52 -23t-66.5 -11zM527 805q0 -70 -48.5 -125t-134.5 -55t-135 55t-49 125h75q0 -40 30.5 -63t78.5 -23t78.5 23t30.5 63h74
z" />
    <glyph glyph-name="Uring" unicode="&#x16e;" horiz-adv-x="766" 
d="M383 -8q-144 0 -224.5 71t-80.5 210v477h172v-480q0 -66 32 -97.5t101 -31.5t101 31.5t32 97.5v480h171v-477q0 -138 -84 -209.5t-220 -71.5zM383 828q-137 0 -137 102q0 48 38 74.5t99 26.5q62 0 99.5 -25.5t37.5 -75.5q0 -49 -38 -75.5t-99 -26.5zM383 867
q33 0 49.5 18.5t16.5 44.5t-16.5 44t-49.5 18t-50 -18t-17 -44t17 -44.5t50 -18.5z" />
    <glyph glyph-name="uring" unicode="&#x16f;" horiz-adv-x="687" 
d="M234 -8q-77 0 -116.5 45.5t-39.5 126.5v383h172v-336q0 -36 10.5 -53t40.5 -17t105 46l31 20v340h172v-547h-172v82l-23 -16q-42 -28 -61.5 -40t-52 -23t-66.5 -11zM344 625q-137 0 -137 102q0 48 38 74.5t99 26.5q62 0 99 -25.5t37 -75.5q0 -49 -37.5 -75.5t-98.5 -26.5
zM344 664q33 0 49.5 18.5t16.5 44.5t-16.5 44t-49.5 18t-50 -18t-17 -44t17 -44.5t50 -18.5z" />
    <glyph glyph-name="Uhungarumlaut" unicode="&#x170;" horiz-adv-x="766" 
d="M383 -8q-144 0 -224.5 71t-80.5 210v477h172v-480q0 -66 32 -97.5t101 -31.5t101 31.5t32 97.5v480h171v-477q0 -138 -84 -209.5t-220 -71.5zM660 969l-183 -141h-90v16l121 140h152v-15zM422 969l-183 -141h-94v16l125 140h152v-15z" />
    <glyph glyph-name="uhungarumlaut" unicode="&#x171;" horiz-adv-x="687" 
d="M234 -8q-77 0 -116.5 45.5t-39.5 126.5v383h172v-336q0 -36 10.5 -53t40.5 -17t105 46l31 20v340h172v-547h-172v82l-23 -16q-42 -28 -61.5 -40t-52 -23t-66.5 -11zM621 766l-184 -141h-89v16l121 140h152v-15zM383 766l-183 -141h-95v16l125 140h153v-15z" />
    <glyph glyph-name="Uogonek" unicode="&#x172;" horiz-adv-x="766" 
d="M383 -8q-144 0 -224.5 71t-80.5 210v477h172v-480q0 -66 32 -97.5t101 -31.5t101 31.5t32 97.5v480h171v-477q0 -138 -84 -209.5t-220 -71.5zM516 -188h-129q-48 0 -79 20.5t-31 62.5q0 23 18 46.5t45 35.5h78v-12q-1 -1 -7.5 -4t-8.5 -4t-7.5 -4.5t-7.5 -5t-6 -5t-6 -6
t-4 -6.5t-3 -8t-1 -8q0 -31 55 -31h94v-71z" />
    <glyph glyph-name="uogonek" unicode="&#x173;" horiz-adv-x="687" 
d="M234 -8q-77 0 -116.5 45.5t-39.5 126.5v383h172v-336q0 -36 10.5 -53t40.5 -17t105 46l31 20v340h172v-547h-172v82l-23 -16q-42 -28 -61.5 -40t-52 -23t-66.5 -11zM660 -188h-129q-47 0 -78 20.5t-31 62.5q0 23 18 46.5t44 35.5h78v-12q-38 -20 -46 -34q-4 -8 -4 -17
q0 -31 54 -31h94v-71z" />
    <glyph glyph-name="Wcircumflex" unicode="&#x174;" horiz-adv-x="1133" 
d="M227 0q-60 137 -114.5 347t-81.5 395v8h188q19 -145 58 -325.5t75 -272.5q39 93 80.5 274t59.5 324h156q19 -141 60 -318.5t81 -279.5q37 101 75.5 278.5t57.5 319.5h187v-8q-31 -201 -85 -403t-110 -339h-234q-76 182 -110 367q-31 -176 -109 -367h-234zM785 828h-109
l-106 94h-8l-105 -94h-109v16l140 164h158l139 -164v-16z" />
    <glyph glyph-name="wcircumflex" unicode="&#x175;" horiz-adv-x="875" 
d="M172 0q-48 41 -94.5 159t-46.5 247v141h172v-141q0 -94 19.5 -171t54.5 -118q35 41 55 118t20 171v141h171v-141q0 -94 20 -171t55 -118q35 41 54.5 118t19.5 171v141h172v-141q0 -126 -52.5 -244t-103.5 -162h-180q-14 12 -38.5 55.5t-35.5 77.5q-11 -33 -38.5 -76
t-43.5 -57h-180zM656 625h-109l-106 94h-7l-106 -94h-109v16l140 164h158l139 -164v-16z" />
    <glyph glyph-name="Ycircumflex" unicode="&#x176;" horiz-adv-x="699" 
d="M258 0v285l-242 457v8h179l157 -320l164 320h168v-8l-254 -457v-285h-172zM568 828h-109l-105 94h-8l-106 -94h-109v16l140 164h158l139 -164v-16z" />
    <glyph glyph-name="ycircumflex" unicode="&#x177;" horiz-adv-x="680" 
d="M141 -188v141h117q93 0 132.5 30t39.5 115v27l-35 -20q-78 -42 -141 -42q-88 0 -136 46t-48 133v305h172v-274q0 -62 63 -62q47 0 101 27l24 12v297h172v-469q0 -124 -77 -195t-205 -71h-179zM559 625h-110l-105 94h-8l-106 -94h-109v16l141 164h157l140 -164v-16z" />
    <glyph glyph-name="Ydieresis" unicode="&#x178;" horiz-adv-x="699" 
d="M258 0v285l-242 457v8h179l157 -320l164 320h168v-8l-254 -457v-285h-172zM144 828v125h132v-125h-132zM425 828v125h133v-125h-133z" />
    <glyph glyph-name="Zacute" unicode="&#x179;" horiz-adv-x="633" 
d="M39 0v102q78 96 187.5 256t152.5 244h-324v148h547v-102q-41 -81 -148 -243t-181 -257h329v-148h-563zM469 970l-172 -142h-110v16l98 140h184v-14z" />
    <glyph glyph-name="zacute" unicode="&#x17a;" horiz-adv-x="523" 
d="M31 0v102q172 170 254 304h-246v141h453v-102q-34 -68 -100 -156t-126 -148h234v-141h-469zM426 767l-172 -142h-109v16l97 140h184v-14z" />
    <glyph glyph-name="Zdotaccent" unicode="&#x17b;" horiz-adv-x="633" 
d="M39 0v102q78 96 187.5 256t152.5 244h-324v148h547v-102q-41 -81 -148 -243t-181 -257h329v-148h-563zM230 820v125h172v-125h-172z" />
    <glyph glyph-name="zdotaccent" unicode="&#x17c;" horiz-adv-x="523" 
d="M31 0v102q172 170 254 304h-246v141h453v-102q-34 -68 -100 -156t-126 -148h234v-141h-469zM176 617v125h172v-125h-172z" />
    <glyph glyph-name="Zcaron" unicode="&#x17d;" horiz-adv-x="633" 
d="M39 0v102q78 96 187.5 256t152.5 244h-324v148h547v-102q-41 -81 -148 -243t-181 -257h329v-148h-563zM98 1008h109l105 -94h8l106 94h109v-16l-139 -164h-158l-140 164v16z" />
    <glyph glyph-name="zcaron" unicode="&#x17e;" horiz-adv-x="523" 
d="M31 0v102q172 170 254 304h-246v141h453v-102q-34 -68 -100 -156t-126 -148h234v-141h-469zM43 805h109l106 -94h8l105 94h109v-16l-139 -164h-157l-141 164v16z" />
    <glyph glyph-name="longs" unicode="&#x17f;" horiz-adv-x="359" 
d="M94 0v406h-86v141h86v16q0 90 51.5 138.5t143.5 48.5h109v-125h-54q-78 0 -78 -70v-555h-172z" />
    <glyph glyph-name="florin" unicode="&#x192;" 
d="M31 -188v149h74q58 0 82 26.5t24 86.5v231h-117v148h117v35q0 262 277 262h74v-148h-74q-57 0 -81 -27t-24 -87v-35h148v-148h-148v-231q0 -262 -278 -262h-74z" />
    <glyph glyph-name="Scommaaccent" unicode="&#x218;" horiz-adv-x="641" 
d="M266 -8q-45 0 -108 10.5t-103 24.5v145h8q103 -31 203 -31h39q109 0 109 82q0 55 -86 78l-117 31q-156 40 -156 211q0 108 77.5 161.5t199.5 53.5h39q38 0 95.5 -8.5t88.5 -19.5v-144h-8q-29 8 -86 15.5t-90 7.5h-35q-102 0 -102 -66q0 -52 71 -70l117 -32
q86 -23 129 -76t43 -142q0 -120 -77.5 -175.5t-211.5 -55.5h-39zM184 -195l43 156h121v-55l-75 -101h-89z" />
    <glyph glyph-name="scommaaccent" unicode="&#x219;" horiz-adv-x="539" 
d="M223 -8q-99 0 -184 20v144h8q100 -19 176 -19q97 0 97 31q0 16 -10 23t-33 12l-86 20q-152 34 -152 156q0 89 75.5 132.5t198.5 43.5q78 0 156 -16v-144h-8q-101 15 -152 15q-90 0 -90 -27q0 -11 9.5 -18.5t17.5 -10t27 -6.5l75 -16q152 -32 152 -160q0 -180 -277 -180z
M133 -195l43 156h121v-55l-74 -101h-90z" />
    <glyph glyph-name="uni021A" unicode="&#x21a;" horiz-adv-x="609" 
d="M219 0v602h-203v148h578v-148h-203v-602h-172zM199 -195l43 156h121v-55l-74 -101h-90z" />
    <glyph glyph-name="uni021B" unicode="&#x21b;" horiz-adv-x="422" 
d="M422 0h-102q-107 0 -166.5 53.5t-59.5 157.5v195h-86v141h86v141h172v-141h140v-141h-140v-156q0 -60 22 -84.5t79 -24.5h55v-141zM176 -195l43 156h121v-55l-74 -101h-90z" />
    <glyph glyph-name="circumflex" unicode="&#x2c6;" horiz-adv-x="437" 
d="M437 625h-109l-105 94h-8l-106 -94h-109v16l141 164h157l139 -164v-16z" />
    <glyph glyph-name="caron" unicode="&#x2c7;" horiz-adv-x="437" 
d="M0 805h109l106 -94h8l105 94h109v-16l-139 -164h-157l-141 164v16z" />
    <glyph glyph-name="breve" unicode="&#x2d8;" horiz-adv-x="367" 
d="M367 805q0 -70 -48.5 -125t-134.5 -55t-135 55t-49 125h75q0 -40 30.5 -63t78.5 -23t78.5 23t30.5 63h74z" />
    <glyph glyph-name="dotaccent" unicode="&#x2d9;" horiz-adv-x="172" 
d="M0 617v125h172v-125h-172z" />
    <glyph glyph-name="ring" unicode="&#x2da;" horiz-adv-x="273" 
d="M137 625q-137 0 -137 102q0 48 38 74.5t99 26.5q62 0 99 -25.5t37 -75.5q0 -49 -37.5 -75.5t-98.5 -26.5zM137 664q33 0 49.5 18.5t16.5 44.5t-16.5 44t-49.5 18t-50 -18t-17 -44t17 -44.5t50 -18.5z" />
    <glyph glyph-name="ogonek" unicode="&#x2db;" horiz-adv-x="238" 
d="M238 -188h-129q-47 0 -78 20.5t-31 62.5q0 23 18 46.5t44 35.5h79v-12l-19 -9.5t-15 -9.5t-13.5 -14.5t-3.5 -17.5q0 -31 55 -31h93v-71z" />
    <glyph glyph-name="tilde" unicode="&#x2dc;" horiz-adv-x="344" 
d="M344 690q-16 -23 -45.5 -44t-60.5 -21q-28 0 -75 31.5t-65 31.5q-21 0 -39.5 -11t-26.5 -21l-24 -31h-8v98q16 22 42 40t56 18q28 0 75.5 -31t64.5 -31q21 0 41 10.5t31 21.5t26 30h8v-91z" />
    <glyph glyph-name="hungarumlaut" unicode="&#x2dd;" horiz-adv-x="516" 
d="M516 766l-184 -141h-90v16l121 140h153v-15zM277 766l-182 -141h-95v16l125 140h152v-15z" />
    <glyph glyph-name="Delta" unicode="&#x394;" horiz-adv-x="680" 
d="M20 0v23l253 727h141l254 -727v-23h-648zM203 141h281l-140 453z" />
    <glyph glyph-name="Delta" unicode="&#x2206;" horiz-adv-x="680" 
d="M20 0v23l253 727h141l254 -727v-23h-648zM203 141h281l-140 453z" />
    <glyph glyph-name="Omega" unicode="&#x3a9;" horiz-adv-x="758" 
d="M39 0v98h152q-152 119 -152 285q0 164 98.5 254t241.5 90t241.5 -90t98.5 -254q0 -167 -153 -285h153v-98h-281v78q113 105 113 305q0 133 -45.5 207t-126.5 74t-126.5 -74t-45.5 -207q0 -198 113 -305v-78h-281z" />
    <glyph glyph-name="Omega" unicode="&#x2126;" horiz-adv-x="758" 
d="M39 0v98h152q-152 119 -152 285q0 164 98.5 254t241.5 90t241.5 -90t98.5 -254q0 -167 -153 -285h153v-98h-281v78q113 105 113 305q0 133 -45.5 207t-126.5 74t-126.5 -74t-45.5 -207q0 -198 113 -305v-78h-281z" />
    <glyph glyph-name="pi" unicode="&#x3c0;" horiz-adv-x="711" 
d="M78 547h531v-547h-172v402h-187v-402h-172v547z" />
    <glyph glyph-name="endash" unicode="&#x2013;" horiz-adv-x="500" 
d="M31 297v141h438v-141h-438z" />
    <glyph glyph-name="emdash" unicode="&#x2014;" horiz-adv-x="1000" 
d="M31 297v141h938v-141h-938z" />
    <glyph glyph-name="quoteleft" unicode="&#x2018;" horiz-adv-x="297" 
d="M277 750l-78 -297h-172v63l129 234h121z" />
    <glyph glyph-name="quoteright" unicode="&#x2019;" horiz-adv-x="297" 
d="M16 453l78 297h172v-62l-129 -235h-121z" />
    <glyph glyph-name="quotesinglbase" unicode="&#x201a;" horiz-adv-x="328" 
d="M12 -125l78 297h172v-63l-129 -234h-121z" />
    <glyph glyph-name="quotedblleft" unicode="&#x201c;" horiz-adv-x="555" 
d="M539 750l-78 -297h-172v63l129 234h121zM281 750l-78 -297h-172v63l129 234h121z" />
    <glyph glyph-name="quotedblright" unicode="&#x201d;" horiz-adv-x="555" 
d="M273 453l79 297h171v-62l-128 -235h-122zM16 453l78 297h172v-62l-129 -235h-121z" />
    <glyph glyph-name="quotedblbase" unicode="&#x201e;" horiz-adv-x="555" 
d="M270 -125l78 297h172v-63l-129 -234h-121zM12 -125l78 297h172v-63l-129 -234h-121z" />
    <glyph glyph-name="dagger" unicode="&#x2020;" horiz-adv-x="602" 
d="M215 -125v531h-153v141h153v203h172v-203h152v-141h-152v-531h-172z" />
    <glyph glyph-name="daggerdbl" unicode="&#x2021;" horiz-adv-x="602" 
d="M387 78v-203h-172v203h-153v141h153v187h-153v141h153v203h172v-203h152v-141h-152v-187h152v-141h-152z" />
    <glyph glyph-name="bullet" unicode="&#x2022;" horiz-adv-x="500" 
d="M250 125q-76 0 -131.5 49.5t-55.5 138.5t55.5 138t131.5 49t132 -49t56 -138t-56 -138.5t-132 -49.5z" />
    <glyph glyph-name="ellipsis" unicode="&#x2026;" horiz-adv-x="922" 
d="M672 0v172h172v-172h-172zM375 0v172h172v-172h-172zM78 0v172h172v-172h-172z" />
    <glyph glyph-name="perthousand" unicode="&#x2030;" horiz-adv-x="1512" 
d="M297 0v16l355 734h82v-16l-355 -734h-82zM252 320q-98 0 -144 50t-46 167q0 120 46 169t144 49q97 0 142.5 -49.5t45.5 -168.5q0 -116 -46 -166.5t-142 -50.5zM252 417q37 0 49.5 24t12.5 96q0 73 -12.5 96.5t-49.5 23.5q-39 0 -52 -23.5t-13 -96.5q0 -72 13 -96t52 -24z
M782 -4q-98 0 -144 50t-46 167q0 120 46 169t144 49q97 0 143 -49.5t46 -168.5q0 -116 -46.5 -166.5t-142.5 -50.5zM782 93q37 0 50 24t13 96q0 73 -13 96.5t-50 23.5q-39 0 -51.5 -23.5t-12.5 -96.5q0 -72 13 -96t51 -24zM1248 -4q-98 0 -144 50t-46 167q0 120 46 169
t144 49q97 0 143 -49.5t46 -168.5q0 -116 -46.5 -166.5t-142.5 -50.5zM1248 93q37 0 50 24t13 96q0 73 -13 96.5t-50 23.5q-39 0 -51.5 -23.5t-12.5 -96.5q0 -72 13 -96t51 -24z" />
    <glyph glyph-name="guilsinglleft" unicode="&#x2039;" horiz-adv-x="336" 
d="M270 125l-207 156v110l207 156h11v-125l-117 -86l117 -86v-125h-11z" />
    <glyph glyph-name="guilsinglright" unicode="&#x203a;" horiz-adv-x="336" 
d="M66 547l207 -156v-110l-207 -156h-11v125l117 86l-117 86v125h11z" />
    <glyph glyph-name="fraction" unicode="&#x2044;" horiz-adv-x="8" 
d="M-219 0v16l356 734h82v-16l-356 -734h-82z" />
    <glyph glyph-name="fraction" unicode="&#x2215;" horiz-adv-x="8" 
d="M-219 0v16l356 734h82v-16l-356 -734h-82z" />
    <glyph glyph-name="uni2070" unicode="&#x2070;" horiz-adv-x="412" 
d="M207 320q-98 0 -144 50t-46 167q0 120 46 169t144 49q97 0 143 -49.5t46 -168.5q0 -116 -46.5 -166.5t-142.5 -50.5zM207 417q37 0 50 24t13 96q0 73 -13 96.5t-50 23.5q-39 0 -51.5 -23.5t-12.5 -96.5q0 -72 13 -96t51 -24z" />
    <glyph glyph-name="uni2074" unicode="&#x2074;" horiz-adv-x="412" 
d="M227 324v66h-200v72q68 118 92 288h136q-25 -155 -95 -263h67v75h126v-75h43v-97h-43v-66h-126z" />
    <glyph glyph-name="uni2075" unicode="&#x2075;" horiz-adv-x="412" 
d="M38 324v97h149q73 0 73 44q0 17 -12.5 26t-28 11t-42.5 2h-129v246h317v-97h-196v-52h35q182 0 182 -136q0 -72 -53.5 -106.5t-145.5 -34.5h-149z" />
    <glyph glyph-name="uni2076" unicode="&#x2076;" horiz-adv-x="412" 
d="M201 320q-80 0 -127 38.5t-47 106.5v115q0 82 62 126t163 44h99v-97h-115q-34 0 -57 -14.5t-26 -39.5q32 9 74 9q78 0 118.5 -37.5t40.5 -105.5t-50.5 -106.5t-134.5 -38.5zM207 417q53 0 53 48q0 53 -53 53q-29 0 -54 -7v-46q0 -48 54 -48z" />
    <glyph glyph-name="uni2077" unicode="&#x2077;" horiz-adv-x="412" 
d="M107 324v60q0 81 33.5 151t89.5 118h-192v97h338v-70q-69 -65 -106 -133.5t-37 -162.5v-60h-126z" />
    <glyph glyph-name="uni2078" unicode="&#x2078;" horiz-adv-x="412" 
d="M198 320q-177 0 -177 127q0 58 60 93l7 4q-56 32 -56 94q0 58 48 87.5t118 29.5h16q166 0 166 -117q0 -24 -15 -49t-35 -38l-3 -2q64 -38 64 -102q0 -59 -51.5 -93t-125.5 -34h-16zM198 417h16q51 0 51 34q0 13 -8.5 22.5t-17.5 13.5t-27 10l-29 10l-17 -14
q-18 -15 -18 -42q0 -34 50 -34zM230 585l10 10q20 18 20 37q0 25 -46 25h-16q-45 0 -45 -25q0 -10 6 -16.5t10.5 -8.5t19.5 -7z" />
    <glyph glyph-name="uni2079" unicode="&#x2079;" horiz-adv-x="412" 
d="M62 324v97h115q33 0 55.5 13t26.5 38q-33 -11 -73 -11q-78 0 -118.5 38t-40.5 107q0 68 50.5 106t133.5 38q79 0 127 -39t48 -105v-112q0 -81 -62 -125.5t-163 -44.5h-99zM207 554q30 0 53 6v46q0 47 -53 47q-54 0 -54 -47q0 -52 54 -52z" />
    <glyph glyph-name="uni2080" unicode="&#x2080;" horiz-adv-x="412" 
d="M207 -4q-98 0 -144 50t-46 167q0 120 46 169t144 49q97 0 143 -49.5t46 -168.5q0 -116 -46.5 -166.5t-142.5 -50.5zM207 93q37 0 50 24t13 96q0 73 -13 96.5t-50 23.5q-39 0 -51.5 -23.5t-12.5 -96.5q0 -72 13 -96t51 -24z" />
    <glyph glyph-name="uni2081" unicode="&#x2081;" horiz-adv-x="412" 
d="M168 0v306l-107 -36h-14v99l166 57h81v-426h-126z" />
    <glyph glyph-name="uni2082" unicode="&#x2082;" horiz-adv-x="412" 
d="M32 0v71q0 44 21 74.5t74 61.5l65 38q46 27 46 54q0 18 -13.5 24t-47.5 6h-129v97h159q75 0 116.5 -32.5t41.5 -90.5q0 -25 -7 -44t-24.5 -35t-32 -26t-45.5 -28l-56 -32q-36 -21 -37 -41h213v-97h-344z" />
    <glyph glyph-name="uni2083" unicode="&#x2083;" horiz-adv-x="412" 
d="M48 0v97h148q64 0 64 39q0 36 -64 36h-97v83h110q40 22 40 46q0 28 -53 28h-143v97h154q81 0 125 -23t44 -83q0 -50 -51 -85q61 -27 61 -99q0 -63 -50 -99.5t-129 -36.5h-159z" />
    <glyph glyph-name="uni2084" unicode="&#x2084;" horiz-adv-x="412" 
d="M227 0v65h-200v73q68 118 92 288h136q-25 -155 -95 -263h67v75h126v-75h43v-98h-43v-65h-126z" />
    <glyph glyph-name="uni2085" unicode="&#x2085;" horiz-adv-x="412" 
d="M38 0v97h149q73 0 73 44q0 17 -12.5 26t-28 11t-42.5 2h-129v246h317v-97h-196v-53h35q182 0 182 -135q0 -72 -53.5 -106.5t-145.5 -34.5h-149z" />
    <glyph glyph-name="uni2086" unicode="&#x2086;" horiz-adv-x="412" 
d="M201 -4q-80 0 -127 38.5t-47 106.5v115q0 82 62 126t163 44h99v-97h-115q-34 0 -57 -14.5t-26 -40.5q31 10 74 10q78 0 118.5 -37.5t40.5 -105.5t-50.5 -106.5t-134.5 -38.5zM207 93q53 0 53 48q0 52 -53 52q-27 0 -54 -6v-46q0 -48 54 -48z" />
    <glyph glyph-name="uni2087" unicode="&#x2087;" horiz-adv-x="412" 
d="M107 0v60q0 81 33.5 151t89.5 118h-192v97h338v-71q-69 -65 -106 -133.5t-37 -161.5v-60h-126z" />
    <glyph glyph-name="uni2088" unicode="&#x2088;" horiz-adv-x="412" 
d="M198 -4q-177 0 -177 127q0 58 60 93l7 4q-56 32 -56 93q0 58 48.5 88t117.5 30h16q166 0 166 -118q0 -23 -15 -48t-35 -38l-3 -2q64 -38 64 -102q0 -59 -51.5 -93t-125.5 -34h-16zM198 93h16q51 0 51 34q0 13 -8.5 22.5t-17.5 13.5t-27 10l-29 10l-17 -14
q-18 -15 -18 -42q0 -34 50 -34zM230 261l10 10q20 18 20 37q0 25 -46 25h-16q-45 0 -45 -25q0 -3 0.5 -6t2 -5.5t2.5 -4.5t3.5 -4t4 -3t5.5 -2.5t5.5 -2.5t6 -2.5t6.5 -2.5z" />
    <glyph glyph-name="uni2089" unicode="&#x2089;" horiz-adv-x="412" 
d="M62 0v97h115q75 0 82 50q-34 -10 -73 -10q-78 0 -118.5 38t-40.5 107q0 68 50.5 106t133.5 38q79 0 127 -39t48 -105v-112q0 -81 -62 -125.5t-163 -44.5h-99zM207 229q30 0 53 6v47q0 47 -53 47q-54 0 -54 -47q0 -53 54 -53z" />
    <glyph glyph-name="Euro" unicode="&#x20ac;" 
d="M109 410h-78v90h78q0 116 86.5 187t210.5 71h24q39 0 83 -9.5t65 -21.5v-145h-8q-59 27 -140 27h-24q-117 0 -117 -109h227v-90h-227v-70h227v-90h-227q0 -56 32 -82.5t85 -26.5h32q70 0 132 31h8v-145q-73 -35 -140 -35h-32q-80 0 -145 26t-108.5 86t-43.5 146h-78v90
h78v70z" />
    <glyph glyph-name="trademark" unicode="&#x2122;" horiz-adv-x="859" 
d="M391 344v406h105l98 -160l97 160h106v-406h-109v219l-75 -125h-39l-74 117v-211h-109zM129 344v316h-98v90h305v-90h-98v-316h-109z" />
    <glyph glyph-name="partialdiff" unicode="&#x2202;" 
d="M320 -8q-123 0 -198 66t-75 184q0 119 59.5 184.5t174.5 65.5q72 0 125 -25v10q0 57 -40 91t-100 34h-164v148h140q151 0 243.5 -77.5t92.5 -219.5v-211q0 -116 -70 -183t-188 -67zM312 141q46 0 70 26.5t24 74.5v95q-41 15 -94 15q-93 0 -93 -110q0 -101 93 -101z" />
    <glyph glyph-name="product" unicode="&#x220f;" horiz-adv-x="767" 
d="M78 0v750h610v-750h-172v603h-266v-603h-172z" />
    <glyph glyph-name="summation" unicode="&#x2211;" horiz-adv-x="672" 
d="M55 719v31h558v-121h-332l133 -223v-70l-133 -215h332v-121h-558v31l203 340z" />
    <glyph glyph-name="minus" unicode="&#x2212;" 
d="M94 297v141h437v-141h-437z" />
    <glyph glyph-name="radical" unicode="&#x221a;" horiz-adv-x="641" 
d="M184 0l-172 539v8h133l125 -430l207 602h164v-117h-79l-214 -602h-164z" />
    <glyph glyph-name="infinity" unicode="&#x221e;" horiz-adv-x="598" 
d="M133 188q-60 0 -88.5 45t-28.5 111t28.5 111t88.5 45q35 0 61.5 -17.5t67.5 -68.5l31 -39q40 51 86 88t82 37q60 0 88.5 -44t28.5 -112q0 -66 -28.5 -111t-88.5 -45q-36 0 -66.5 18.5t-66.5 63.5l-35 43q-93 -125 -160 -125zM461 234q70 0 70 110q0 109 -70 109
q-26 0 -67.5 -31.5t-77.5 -73.5l39 -47q57 -67 106 -67zM133 234q56 0 137 106l-36 43q-58 70 -101 70q-70 0 -70 -109q0 -52 20 -81t50 -29z" />
    <glyph glyph-name="integral" unicode="&#x222b;" horiz-adv-x="367" 
d="M-39 -188v141h55q78 0 78 70v540q0 90 51.5 138.5t143.5 48.5h78v-141h-54q-79 0 -79 -70v-539q0 -90 -51.5 -139t-143.5 -49h-78z" />
    <glyph glyph-name="approxequal" unicode="&#x2248;" 
d="M94 340v137q16 29 47 49.5t70 20.5q37 0 109 -33.5t98 -33.5q39 0 63 16.5t42 50.5h8v-137q-16 -29 -47 -49.5t-70 -20.5q-37 0 -109 33t-98 33q-64 0 -105 -66h-8zM94 98v136q16 30 47 50.5t70 20.5q37 0 109 -33.5t98 -33.5q39 0 63 16.5t42 50.5h8v-137
q-16 -29 -47 -49.5t-70 -20.5q-37 0 -109 33t-98 33q-64 0 -105 -66h-8z" />
    <glyph glyph-name="notequal" unicode="&#x2260;" 
d="M184 39v12l27 113h-117v141h151l26 101h-177v141h211l31 125h105v-12l-28 -113h118v-141h-152l-25 -101h177v-141h-211l-31 -125h-105z" />
    <glyph glyph-name="lessequal" unicode="&#x2264;" 
d="M523 82l-429 223v125l429 222h8v-160l-261 -125l261 -125v-160h-8zM94 -141v141h437v-141h-437z" />
    <glyph glyph-name="greaterequal" unicode="&#x2265;" 
d="M94 82v160l261 125l-261 125v160h8l429 -222v-125l-429 -223h-8zM94 -141v141h437v-141h-437z" />
    <glyph glyph-name="lozenge" unicode="&#x25ca;" horiz-adv-x="703" 
d="M352 0l-321 375l321 375l320 -375zM352 172l171 203l-171 203l-172 -203z" />
    <glyph glyph-name="dotlessj" unicode="&#xf6be;" horiz-adv-x="352" 
d="M-16 -188v141h24q52 0 73 20.5t21 73.5v359h-79v141h250v-516q0 -105 -61.5 -162t-156.5 -57h-71z" />
    <glyph glyph-name="commaaccent" unicode="&#xf6c3;" horiz-adv-x="195" 
d="M0 -195l43 156h121v-55l-74 -101h-90z" />
    <glyph glyph-name="a.superior" horiz-adv-x="578" 
d="M198 323q-72 0 -111.5 36.5t-39.5 102.5v84q0 93 70 148.5t179 55.5h215v-421h-148v58l-34 -22q-69 -42 -131 -42zM336 468l27 14v160h-54q-114 0 -114 -96v-61q0 -48 54 -48q35 0 87 31z" />
    <glyph glyph-name="b.superior" horiz-adv-x="578" 
d="M67 329v577h148v-213l34 21q72 42 131 42q72 0 111.5 -36t39.5 -102v-85q0 -93 -70.5 -148.5t-178.5 -55.5h-215zM242 612l-27 -15v-160h55q113 0 113 96v61q0 48 -54 48q-31 0 -87 -30z" />
    <glyph glyph-name="c.superior" horiz-adv-x="477" 
d="M272 323q-109 0 -174 38.5t-65 123.5v91q0 81 66.5 130.5t162.5 49.5q94 0 161 -29v-145h-120v54q-14 6 -41 6q-38 0 -59 -19t-21 -53v-54q0 -79 93 -79q72 0 142 21h6v-107q-24 -12 -69.5 -20t-81.5 -8z" />
    <glyph glyph-name="d.superior" horiz-adv-x="578" 
d="M198 323q-72 0 -111.5 36.5t-39.5 102.5v84q0 93 70 148.5t179 55.5h67v156h148v-577h-148v58l-34 -22q-69 -42 -131 -42zM336 468l27 14v160h-54q-114 0 -114 -96v-61q0 -48 54 -48q35 0 87 31z" />
    <glyph glyph-name="e.superior" horiz-adv-x="531" 
d="M270 323q-110 0 -173.5 41.5t-63.5 129.5v82q0 87 67 133.5t172 46.5q212 0 212 -138q0 -124 -175 -124h-127v-3q0 -54 100 -54q80 0 155 18h6v-108q-71 -24 -173 -24zM182 579v-7h117q51 0 51 36q0 25 -20 32t-58 7q-45 0 -67.5 -15.5t-22.5 -52.5z" />
    <glyph glyph-name="f.superior" horiz-adv-x="315" 
d="M81 329v313h-74v108h74v13q0 68 44.5 105.5t123.5 37.5h94v-95h-47q-67 0 -67 -55v-6h100v-108h-100v-313h-148z" />
    <glyph glyph-name="g.superior" horiz-adv-x="578" 
d="M107 185v108h108q78 0 113 22t35 83v3l-34 -14q-70 -33 -124 -33q-76 0 -117 35t-41 102v55q0 93 70 148.5t179 55.5h215v-360q0 -96 -66.5 -150.5t-175.5 -54.5h-162zM339 488l24 9v145h-54q-114 0 -114 -96v-30q0 -48 54 -48q34 0 90 20z" />
    <glyph glyph-name="h.superior" horiz-adv-x="592" 
d="M377 329v259q0 27 -9.5 40.5t-34.5 13.5q-29 0 -91 -37l-27 -14v-262h-148v577h148v-220l20 13q48 30 80.5 43.5t74.5 13.5q66 0 100 -35t34 -97v-295h-147z" />
    <glyph glyph-name="i.superior" horiz-adv-x="296" 
d="M81 798v108h148v-108h-148zM81 329v313h-67v108h215v-421h-148z" />
    <glyph glyph-name="j.superior" horiz-adv-x="296" 
d="M87 798v108h148v-108h-148zM-14 184v109h21q45 0 62.5 16t17.5 56v277h-66v108h214v-396q0 -82 -53 -126t-135 -44h-61z" />
    <glyph glyph-name="k.superior" horiz-adv-x="551" 
d="M67 329v577h148v-301h34l134 145h161v-6l-175 -183l175 -226v-6h-167l-128 168h-34v-168h-148z" />
    <glyph glyph-name="l.superior" horiz-adv-x="296" 
d="M81 329v469h-67v108h215v-577h-148z" />
    <glyph glyph-name="m.superior" horiz-adv-x="887" 
d="M67 329v421h148v-64l16 13q71 57 152 57q95 0 124 -72h7l20 15q40 30 74 43.5t78 13.5q66 0 99.5 -35t33.5 -97v-295h-147v259q0 27 -9 40.5t-35 13.5q-31 0 -87 -37l-23 -14v-262h-149v259q0 28 -8.5 41t-34.5 13q-28 0 -88 -37l-23 -14v-262h-148z" />
    <glyph glyph-name="n.superior" horiz-adv-x="592" 
d="M67 329v421h148v-64l20 13q48 30 80.5 43.5t74.5 13.5q66 0 100 -35t34 -97v-295h-147v259q0 27 -9.5 40.5t-34.5 13.5q-29 0 -91 -37l-27 -14v-262h-148z" />
    <glyph glyph-name="o.superior" horiz-adv-x="551" 
d="M275 323q-121 0 -181.5 50t-60.5 167q0 216 242 216q123 0 183 -52.5t60 -163.5q0 -118 -59 -167.5t-184 -49.5zM275 437q51 0 72.5 23.5t21.5 79.5t-21.5 79t-72.5 23t-72 -23t-21 -79t21.5 -79.5t71.5 -23.5z" />
    <glyph glyph-name="p.superior" horiz-adv-x="578" 
d="M67 184v566h148v-57l34 21q72 42 131 42q72 0 111.5 -36t39.5 -102v-85q0 -93 -70.5 -148.5t-178.5 -55.5h-67v-145h-148zM242 612l-27 -15v-160h55q113 0 113 96v61q0 48 -54 48q-31 0 -87 -30z" />
    <glyph glyph-name="q.superior" horiz-adv-x="578" 
d="M363 184v203l-34 -22q-69 -42 -131 -42q-72 0 -111.5 36.5t-39.5 102.5v84q0 93 70 148.5t179 55.5h215v-566h-148zM336 468l27 14v160h-54q-114 0 -114 -96v-61q0 -48 54 -48q35 0 87 31z" />
    <glyph glyph-name="r.superior" horiz-adv-x="377" 
d="M67 329v421h148v-51q20 26 54 41.5t70 15.5h38v-114h-51q-71 0 -111 -42v-271h-148z" />
    <glyph glyph-name="s.superior" horiz-adv-x="464" 
d="M191 323q-85 0 -158 15v111h7q79 -14 151 -14q84 0 84 23q0 13 -8 17.5t-29 9.5l-73 16q-132 27 -132 120q0 68 65.5 101.5t171.5 33.5q65 0 133 -12v-111h-7q-80 12 -130 12q-78 0 -78 -21q0 -9 8.5 -15t15.5 -7.5t23 -4.5l64 -12q131 -26 131 -123q0 -139 -239 -139z
" />
    <glyph glyph-name="t.superior" horiz-adv-x="363" 
d="M275 329q-92 0 -143 41t-51 121v151h-74v108h74v109h148v-109h121v-108h-121v-121q0 -45 19 -64.5t67 -19.5h48v-108h-88z" />
    <glyph glyph-name="u.superior" horiz-adv-x="592" 
d="M201 323q-66 0 -100 35t-34 97v295h148v-259q0 -27 9 -40.5t35 -13.5q12 0 25 5t36.5 17.5l29.5 15.5l27 13v262h147v-421h-147v65l-21 -14q-48 -30 -80.5 -43.5t-74.5 -13.5z" />
    <glyph glyph-name="v.superior" horiz-adv-x="497" 
d="M162 329q-44 33 -89.5 124t-45.5 189v108h148v-108q0 -68 22.5 -128t54.5 -95q31 33 50.5 93t19.5 130v108h149v-108q0 -97 -48 -188t-94 -125h-167z" />
    <glyph glyph-name="w.superior" horiz-adv-x="753" 
d="M147 329q-41 32 -80.5 123t-39.5 190v108h148v-108q0 -155 63 -223q65 68 65 223v108h147v-108q0 -154 64 -223q64 67 64 223v108h148v-108q0 -98 -45 -188.5t-89 -124.5h-155q-12 9 -33 43t-31 60q-10 -25 -33.5 -58.5t-36.5 -44.5h-156z" />
    <glyph glyph-name="x.superior" horiz-adv-x="457" 
d="M0 329v6l153 207l-146 202v6h147l76 -104l79 104h141v-6l-147 -198l154 -211v-6h-148l-83 114l-85 -114h-141z" />
    <glyph glyph-name="y.superior" horiz-adv-x="585" 
d="M121 184v109h101q79 0 113 23t34 88v22l-30 -16q-66 -32 -120 -32q-77 0 -117.5 35.5t-40.5 102.5v234h147v-210q0 -49 54 -49q38 0 88 22l19 8v229h149v-360q0 -96 -66.5 -151t-176.5 -55h-154z" />
    <glyph glyph-name="z.superior" horiz-adv-x="450" 
d="M27 329v78q149 134 218 235h-212v108h390v-78q-29 -53 -85.5 -121t-108.5 -114h201v-108h-403z" />
    <glyph glyph-name="zero.numerator" horiz-adv-x="508" 
d="M254 320q-98 0 -144.5 50.5t-46.5 166.5q0 119 46 168.5t145 49.5q97 0 142.5 -49.5t45.5 -168.5q0 -116 -46 -166.5t-142 -50.5zM254 417q37 0 49.5 24t12.5 96q0 73 -12.5 96.5t-49.5 23.5q-39 0 -52 -23.5t-13 -96.5q0 -72 13 -96t52 -24z" />
    <glyph glyph-name="one.numerator" horiz-adv-x="508" 
d="M215 324v306l-108 -36h-13v99l166 57h81v-426h-126z" />
    <glyph glyph-name="two.numerator" horiz-adv-x="508" 
d="M79 324v72q0 44 21 74t74 61l65 38q46 27 46 54q0 18 -13.5 24t-47.5 6h-129v97h159q75 0 116.5 -32.5t41.5 -90.5q0 -32 -15.5 -57t-34.5 -39t-59 -37l-56 -32q-36 -21 -37 -41h213v-97h-344z" />
    <glyph glyph-name="three.numerator" horiz-adv-x="508" 
d="M95 324v97h148q64 0 64 39q0 36 -64 36h-97v83h110q40 22 40 46q0 28 -53 28h-143v97h154q81 0 125 -23t44 -82q0 -51 -51 -85q61 -28 61 -100q0 -63 -50 -99.5t-129 -36.5h-159z" />
    <glyph glyph-name="four.numerator" horiz-adv-x="508" 
d="M273 324v66h-199v72q68 118 92 288h136q-25 -155 -95 -263h66v75h126v-75h43v-97h-43v-66h-126z" />
    <glyph glyph-name="five.numerator" horiz-adv-x="508" 
d="M85 324v97h148q74 0 74 44q0 17 -12.5 26t-28 11t-42.5 2h-129v246h317v-97h-196v-52h35q182 0 182 -136q0 -72 -54 -106.5t-146 -34.5h-148z" />
    <glyph glyph-name="six.numerator" horiz-adv-x="508" 
d="M248 320q-80 0 -127 38.5t-47 106.5v115q0 82 62 126t163 44h98v-97h-114q-34 0 -57 -14.5t-26 -39.5q32 9 73 9q79 0 119.5 -37.5t40.5 -105.5t-51 -106.5t-134 -38.5zM254 417q53 0 53 48q0 53 -53 53q-29 0 -54 -7v-46q0 -48 54 -48z" />
    <glyph glyph-name="seven.numerator" horiz-adv-x="508" 
d="M154 324v60q0 81 33.5 151t89.5 118h-192v97h338v-70q-69 -65 -106 -133.5t-37 -162.5v-60h-126z" />
    <glyph glyph-name="eight.numerator" horiz-adv-x="508" 
d="M245 320q-177 0 -177 127q0 58 60 93l7 4q-56 32 -56 94q0 58 48 87.5t118 29.5h16q166 0 166 -117q0 -24 -15 -49t-35 -38l-3 -2q63 -37 63 -102q0 -59 -51 -93t-125 -34h-16zM245 417h16q51 0 51 34q0 13 -8.5 22.5t-17.5 13.5t-27 10l-30 10l-16 -14q-18 -15 -18 -42
q0 -34 50 -34zM277 585l10 10q20 18 20 37q0 25 -46 25h-16q-45 0 -45 -25q0 -10 6 -16.5t10.5 -8.5t19.5 -7z" />
    <glyph glyph-name="nine.numerator" horiz-adv-x="508" 
d="M109 324v97h115q33 0 55.5 13t26.5 38q-33 -11 -74 -11q-77 0 -117.5 38t-40.5 107q0 68 50.5 106t133.5 38q79 0 127 -39t48 -105v-112q0 -81 -62 -125.5t-163 -44.5h-99zM254 554q30 0 53 6v46q0 47 -53 47q-54 0 -54 -47q0 -52 54 -52z" />
    <glyph glyph-name="zero.denominator" horiz-adv-x="508" 
d="M254 -4q-98 0 -144.5 50.5t-46.5 166.5q0 119 46 168.5t145 49.5q97 0 142.5 -49.5t45.5 -168.5q0 -116 -46 -166.5t-142 -50.5zM254 93q37 0 49.5 24t12.5 96q0 73 -12.5 96.5t-49.5 23.5q-39 0 -52 -23.5t-13 -96.5q0 -72 13 -96t52 -24z" />
    <glyph glyph-name="one.denominator" horiz-adv-x="508" 
d="M215 0v306l-108 -36h-13v99l166 57h81v-426h-126z" />
    <glyph glyph-name="two.denominator" horiz-adv-x="508" 
d="M79 0v71q0 44 21 74.5t74 61.5l65 38q46 27 46 54q0 18 -13.5 24t-47.5 6h-129v97h159q75 0 116.5 -32.5t41.5 -90.5q0 -25 -7 -44t-24.5 -35t-32 -26t-45.5 -28l-56 -32q-36 -21 -37 -41h213v-97h-344z" />
    <glyph glyph-name="three.denominator" horiz-adv-x="508" 
d="M95 0v97h148q64 0 64 39q0 36 -64 36h-97v83h110q40 22 40 46q0 28 -53 28h-143v97h154q81 0 125 -23t44 -83q0 -50 -51 -85q61 -27 61 -99q0 -63 -50 -99.5t-129 -36.5h-159z" />
    <glyph glyph-name="four.denominator" horiz-adv-x="508" 
d="M273 0v65h-199v73q68 118 92 288h136q-25 -155 -95 -263h66v75h126v-75h43v-98h-43v-65h-126z" />
    <glyph glyph-name="five.denominator" horiz-adv-x="508" 
d="M85 0v97h148q74 0 74 44q0 17 -12.5 26t-28 11t-42.5 2h-129v246h317v-97h-196v-53h35q182 0 182 -135q0 -72 -54 -106.5t-146 -34.5h-148z" />
    <glyph glyph-name="six.denominator" horiz-adv-x="508" 
d="M248 -4q-80 0 -127 38.5t-47 106.5v115q0 82 62 126t163 44h98v-97h-114q-34 0 -57 -14.5t-26 -40.5q31 10 73 10q78 0 119 -37.5t41 -105.5t-51 -106.5t-134 -38.5zM254 93q53 0 53 48q0 52 -53 52q-27 0 -54 -6v-46q0 -48 54 -48z" />
    <glyph glyph-name="seven.denominator" horiz-adv-x="508" 
d="M154 0v60q0 81 33.5 151t89.5 118h-192v97h338v-71q-69 -65 -106 -133.5t-37 -161.5v-60h-126z" />
    <glyph glyph-name="eight.denominator" horiz-adv-x="508" 
d="M245 -4q-177 0 -177 127q0 58 60 93l7 4q-56 32 -56 93q0 58 48.5 88t117.5 30h16q166 0 166 -118q0 -23 -15 -48t-35 -38l-3 -2q63 -37 63 -102q0 -59 -51 -93t-125 -34h-16zM245 93h16q51 0 51 34q0 13 -8.5 22.5t-17.5 13.5t-27 10l-30 10l-16 -14q-18 -15 -18 -42
q0 -34 50 -34zM277 261l10 10q20 18 20 37q0 25 -46 25h-16q-45 0 -45 -25q0 -3 0.5 -6t2 -5.5t2.5 -4.5t3.5 -4t4 -3t5.5 -2.5t5.5 -2.5t6 -2.5t6.5 -2.5z" />
    <glyph glyph-name="nine.denominator" horiz-adv-x="508" 
d="M109 0v97h115q75 0 82 50q-34 -10 -74 -10q-78 0 -118 38t-40 107q0 68 50.5 106t133.5 38q79 0 127 -39t48 -105v-112q0 -81 -62 -125.5t-163 -44.5h-99zM254 229q30 0 53 6v47q0 47 -53 47q-54 0 -54 -47q0 -53 54 -53z" />
    <glyph glyph-name="Gcedilla" horiz-adv-x="742" 
d="M406 -8q-169 0 -268 89.5t-99 254.5v78q0 87 32 154t87.5 108t126 61.5t153.5 20.5q127 0 234 -39v-149h-8q-103 39 -234 39q-96 0 -153.5 -51.5t-57.5 -143.5v-78q0 -86 51.5 -140.5t135.5 -54.5h39q34 0 71 7v118h-110v148h266v-379q-112 -43 -227 -43h-39zM289 -195
l43 156h121v-55l-74 -101h-90z" />
    <glyph glyph-name="gcedilla" horiz-adv-x="672" 
d="M125 -188v141h125q91 0 131.5 28.5t40.5 108.5v4l-39 -20q-74 -35 -115 -41q-15 -2 -30 -2q-88 0 -135.5 46.5t-47.5 133.5v70q0 121 81.5 193.5t207.5 72.5h250v-469q0 -124 -77.5 -195t-204.5 -71h-187zM395 207l27 12v187h-63q-132 0 -132 -125v-39q0 -62 62 -62
q44 0 106 27zM449 750l-43 -156h-121v54l74 102h90z" />
    <glyph glyph-name="Kcedilla" horiz-adv-x="750" 
d="M78 0v750h172v-285h43l227 285h196v-8l-286 -344l304 -390v-8h-203l-246 316h-35v-316h-172zM270 -195l42 156h122v-55l-75 -101h-89z" />
    <glyph glyph-name="kcedilla" horiz-adv-x="641" 
d="M78 0v750h172v-391h39l156 188h188v-8l-203 -238l203 -293v-8h-195l-149 219h-39v-219h-172zM234 -195l43 156h121v-55l-74 -101h-90z" />
    <glyph glyph-name="Lcedilla" horiz-adv-x="562" 
d="M266 0q-92 0 -140 53.5t-48 149.5v547h172v-516q0 -48 16.5 -67t61.5 -19h203v-148h-265zM199 -195l43 156h121v-55l-74 -101h-90z" />
    <glyph glyph-name="lcedilla" horiz-adv-x="344" 
d="M94 0v609h-78v141h250v-750h-172zM78 -195l43 156h121v-55l-74 -101h-90z" />
    <glyph glyph-name="Ncedilla" horiz-adv-x="766" 
d="M78 0v750h156l282 -445v445h172v-750h-157l-281 445v-445h-172zM277 -195l43 156h121v-55l-74 -101h-90z" />
    <glyph glyph-name="ncedilla" horiz-adv-x="687" 
d="M78 0v547h172v-83l23 16q55 40 93.5 57.5t86.5 17.5q78 0 117 -45.5t39 -126.5v-383h-172v336q0 36 -10 53t-40 17q-34 0 -106 -47l-31 -19v-340h-172zM238 -195l43 156h121v-55l-74 -101h-90z" />
    <glyph glyph-name="Rcedilla" horiz-adv-x="687" 
d="M78 0v750h274q138 0 209.5 -55.5t71.5 -194.5q0 -143 -121 -219q54 -43 108 -137t60 -136v-8h-188q-13 46 -54 121.5t-83 101.5h-105v-223h-172zM250 367h70q72 0 102.5 28t30.5 97q0 67 -29 88.5t-104 21.5h-70v-235zM258 -195l43 156h121v-55l-74 -101h-90z" />
    <glyph glyph-name="rcedilla" horiz-adv-x="438" 
d="M78 0v547h172v-67q23 35 63 55t82 20h43v-149h-59q-82 0 -129 -54v-352h-172zM55 -195l43 156h121v-55l-74 -101h-90z" />
    <glyph glyph-name="caronquoteleft" horiz-adv-x="195" 
d="M195 750l-43 -156h-121v54l74 102h90z" />
    <glyph glyph-name="caronquoteright" horiz-adv-x="195" 
d="M0 594l43 156h121v-55l-74 -101h-90z" />
    </font>
</defs>
</svg>
